<?xml version="1.0" standalone="no"?>
<!DOCTYPE svg PUBLIC "-//W3C//DTD SVG 1.1//EN" "http://www.w3.org/Graphics/SVG/1.1/DTD/svg11.dtd" >
<svg>
<metadata>
Created by FontForge 20090622 at Fri Feb 22 10:50:08 2019
 By ffonts
Copyright &#194;&#169; Datto, Inc. All rights reserved.
</metadata>
<defs>
<font id="D-DIN-Italic" horiz-adv-x="512" >
  <font-face 
    font-family="D-DIN"
    font-weight="400"
    font-style="italic"
    font-stretch="normal"
    units-per-em="1000"
    panose-1="2 11 5 4 3 2 2 10 2 4"
    ascent="831"
    descent="-169"
    x-height="507"
    cap-height="690"
    bbox="-179 -168 1200 890"
    underline-thickness="50"
    underline-position="-100"
    slope="-12"
    unicode-range="U+000D-U+FB02"
  />
<missing-glyph horiz-adv-x="600" 
d="M121 690h397v-690h-397v690zM484 34v622h-329v-622h329z" />
    <glyph glyph-name="fi" unicode="fi" horiz-adv-x="546" 
d="M250 567l-13 -60h106l-11 -54h-106l-97 -453h-68l96 453h-65l12 54h64l12 57q12 58 52 92t97 34h53l-12 -54h-42q-64 0 -78 -69zM457 507h68l-108 -507h-67zM492 680h72l-19 -90h-72z" />
    <glyph glyph-name="fl" unicode="fl" horiz-adv-x="601" 
d="M250 567l-13 -60h106l-11 -54h-106l-97 -453h-68l96 453h-65l12 54h64l12 57q12 58 52 92t97 34h53l-12 -54h-42q-64 0 -78 -69zM398 23q-26 23 -26 67q0 16 5 43l119 557h68l-117 -553q-4 -16 -4 -31q0 -23 12.5 -33.5t38.5 -10.5h41l-13 -62h-48q-50 0 -76 23z" />
    <glyph glyph-name=".notdef" horiz-adv-x="600" 
d="M121 690h397v-690h-397v690zM484 34v622h-329v-622h329z" />
    <glyph glyph-name=".null" horiz-adv-x="0" 
 />
    <glyph glyph-name="nonmarkingreturn" unicode="&#xd;" horiz-adv-x="600" 
 />
    <glyph glyph-name="space" unicode=" " horiz-adv-x="217" 
 />
    <glyph glyph-name="exclam" unicode="!" horiz-adv-x="239" 
d="M171 690h84l-120 -494h-55zM41 93h89l-20 -93h-89z" />
    <glyph glyph-name="quotedbl" unicode="&#x22;" horiz-adv-x="308" 
d="M145 690h66l-49 -230h-66zM281 690h66l-48 -230h-67z" />
    <glyph glyph-name="numbersign" unicode="#" 
d="M430 430l-53 -153h90l-12 -56h-97l-76 -221h-60l76 221h-137l-76 -221h-60l76 221h-83l12 56h90l53 153h-86l11 55h94l70 205h60l-70 -205h137l71 205h59l-70 -205h87l-12 -55h-94zM370 430h-137l-53 -153h138z" />
    <glyph glyph-name="dollar" unicode="$" horiz-adv-x="457" 
d="M383 487q2 20 2 29q0 65 -56 80l-46 -219l11 -2q112 -22 112 -121q0 -27 -5 -48q-19 -79 -68 -125t-124 -53l-19 -87h-58l19 88q-62 7 -96 42t-34 96q0 20 3 42h69q-2 -20 -2 -27q0 -76 73 -91l49 230l-12 2q-55 12 -83.5 40t-28.5 77q0 25 5 46q18 78 68 123.5t123 50.5
l17 81h58l-18 -83q52 -9 82 -42.5t30 -92.5q0 -23 -2 -36h-69zM227 389l44 208q-42 -6 -70 -34t-36 -72q-4 -22 -4 -30q0 -57 66 -72zM318 282.5q-16 17.5 -50 25.5l-46 -217q44 7 70 34.5t38 75.5q4 17 4 34q0 30 -16 47.5zM182 689z" />
    <glyph glyph-name="percent" unicode="%" horiz-adv-x="890" 
d="M83 358q0 28 7 57l30 139q15 71 51.5 107t96.5 36q100 0 100 -89q0 -24 -6 -54l-29 -139q-15 -74 -51 -111t-99 -37q-100 0 -100 91zM694 690h62l-520 -690h-63zM240 346q15 21 25 72l27 130q7 35 7 49q0 21 -10 31t-32 10q-30 0 -45 -20.5t-25 -69.5l-28 -130
q-7 -35 -7 -51q0 -22 10 -32t32 -10q31 0 46 21zM559 85q0 28 7 57l30 139q15 71 51.5 107t96.5 36q100 0 100 -89q0 -24 -6 -54l-29 -139q-15 -74 -51 -111t-99 -37q-100 0 -100 91zM716 73q15 21 25 72l27 130q7 35 7 49q0 21 -10 31t-32 10q-30 0 -45 -20.5t-25 -69.5
l-28 -130q-7 -35 -7 -51q0 -22 10 -32t32 -10q31 0 46 21z" />
    <glyph glyph-name="ampersand" unicode="&#x26;" horiz-adv-x="600" 
d="M456 72q10 -7 22 -7h23l-14 -65h-34q-26 0 -40 9.5t-27 35.5l-19 39q-50 -50 -96 -72t-96 -22q-65 0 -101 38t-36 102q0 67 41.5 124.5t141.5 129.5q-27 56 -38.5 89t-11.5 61q0 47 22 85t60 59.5t84 21.5q59 0 94.5 -31.5t35.5 -85.5q0 -56 -36 -101.5t-127 -110.5
l86 -178l96 99l39 -41l-108 -114l22 -45q7 -13 17 -20zM266.5 613q-25.5 -27 -25.5 -69q0 -20 8 -46t29 -73q49 35 74 58t36 44.5t11 49.5t-18.5 45.5t-49.5 17.5q-39 0 -64.5 -27zM259 73.5q33 19.5 81 66.5l-93 190q-76 -56 -107.5 -98.5t-31.5 -92.5q0 -39 22 -62t61 -23
q35 0 68 19.5z" />
    <glyph glyph-name="quotesingle" unicode="'" horiz-adv-x="171" 
d="M145 690h66l-49 -230h-66z" />
    <glyph glyph-name="parenleft" unicode="(" horiz-adv-x="289" 
d="M58 169q0 77 17 159q45 216 206 412h52q-71 -98 -119 -203t-70 -209q-19 -88 -19 -183q0 -121 33 -229h-52q-48 123 -48 253z" />
    <glyph glyph-name="parenright" unicode=")" horiz-adv-x="289" 
d="M107 119q49 106 70 209q19 93 19 180q0 121 -34 232h52q49 -120 49 -254q0 -75 -17 -158q-44 -214 -207 -412h-52q71 97 120 203z" />
    <glyph glyph-name="asterisk" unicode="*" horiz-adv-x="378" 
d="M222 518l-96 -49l-14 36l99 51l-77 50l28 36l76 -50l21 98h46l-21 -97l96 49l13 -36l-98 -50l77 -51l-28 -36l-76 49l-22 -103h-46z" />
    <glyph glyph-name="plus" unicode="+" 
d="M228 243h-166v66h166v166h66v-166h166v-66h-166v-166h-66v166z" />
    <glyph glyph-name="comma" unicode="," horiz-adv-x="174" 
d="M20 93h66l-35 -168l-82 -62z" />
    <glyph glyph-name="hyphen" unicode="-" horiz-adv-x="394" 
d="M86 380h275l-13 -66h-275z" />
    <glyph glyph-name="period" unicode="." horiz-adv-x="239" 
d="M41 92h89l-20 -92h-88z" />
    <glyph glyph-name="slash" unicode="/" horiz-adv-x="392" 
d="M366 690h60l-363 -700h-60z" />
    <glyph glyph-name="zero" unicode="0" horiz-adv-x="492" 
d="M87 27q-39 37 -39 109q0 33 9 75l58 272q24 110 76.5 163.5t141.5 53.5q74 0 112.5 -36t38.5 -107q0 -33 -9 -74l-58 -272q-24 -112 -76.5 -166.5t-141.5 -54.5q-73 0 -112 37zM296.5 94.5q30.5 38.5 50.5 130.5l51 240q10 46 10 80q0 47 -20.5 68t-64.5 21
q-57 0 -88.5 -38.5t-51.5 -130.5l-51 -240q-10 -44 -10 -78q0 -48 21 -69.5t65 -21.5q58 0 88.5 38.5z" />
    <glyph glyph-name="one" unicode="1" horiz-adv-x="329" 
d="M244 606l-138 -89l17 82l138 91h73l-147 -690h-72z" />
    <glyph glyph-name="two" unicode="2" horiz-adv-x="469" 
d="M18 59l303 332q61 66 70 120q6 35 6 45q0 37 -22.5 58t-61.5 21q-47 0 -78.5 -28.5t-44.5 -83.5l-4 -18h-73l4 22q14 79 69.5 126t135.5 47q69 0 109.5 -37.5t40.5 -96.5q0 -17 -7 -54q-8 -42 -30.5 -78.5t-62.5 -80.5l-261 -288h259l-14 -65h-350z" />
    <glyph glyph-name="three" unicode="3" horiz-adv-x="495" 
d="M79.5 24.5q-40.5 34.5 -40.5 98.5q0 27 5 48h73q-4 -24 -4 -34q0 -41 23.5 -61.5t68.5 -20.5q52 0 88 32t47 87q9 44 9 62q0 42 -23.5 65.5t-69.5 23.5h-39l15 66h35q50 0 86.5 31t45.5 82q7 39 7 49q0 38 -23.5 60t-63.5 22q-100 0 -124 -119h-70q37 184 206 184
q69 0 110 -35t41 -96q0 -20 -10 -64q-12 -50 -43.5 -86t-75.5 -55q35 -13 52.5 -43t17.5 -71q0 -23 -10 -72q-18 -87 -76.5 -137.5t-141.5 -50.5q-75 0 -115.5 34.5z" />
    <glyph glyph-name="four" unicode="4" horiz-adv-x="499" 
d="M428 135h-75l-29 -135h-73l29 135h-259l15 66l310 489h79l-311 -489h180l40 188h73l-40 -188h75z" />
    <glyph glyph-name="five" unicode="5" horiz-adv-x="483" 
d="M80 21.5q-39 31.5 -39 91.5q0 23 6 50h68q-2 -18 -2 -26q0 -81 87 -81q105 0 130 130l13 65q5 23 5 48q0 83 -84 83q-37 0 -66.5 -18.5t-45.5 -51.5h-64l80 378h330l-14 -67h-263l-47 -220q17 20 46.5 32.5t63.5 12.5q69 0 104.5 -34.5t35.5 -98.5q0 -30 -7 -61l-16 -76
q-19 -91 -73 -139.5t-137 -48.5q-72 0 -111 31.5z" />
    <glyph glyph-name="six" unicode="6" horiz-adv-x="494" 
d="M82 28q-42 38 -42 106q0 16 2 33t10 52q15 69 69 146l230 325h79l-213 -303q13 9 33.5 15t43.5 6q63 0 101 -37t38 -102q0 -17 -3.5 -37.5t-9.5 -47.5q-20 -91 -80 -142.5t-142 -51.5q-74 0 -116 38zM297.5 88.5q36.5 33.5 48.5 92.5q4 17 6 29q6 26 6 40
q0 43 -25.5 67.5t-69.5 24.5q-52 0 -89 -33.5t-49 -91.5q-6 -27 -8 -41t-2 -27q0 -44 24.5 -69t68.5 -25q53 0 89.5 33.5z" />
    <glyph glyph-name="seven" unicode="7" horiz-adv-x="431" 
d="M484 690l-14 -66l-358 -624h-73l360 624h-280l14 66h351z" />
    <glyph glyph-name="eight" unicode="8" 
d="M90.5 29.5q-43.5 39.5 -43.5 106.5q0 20 9 68q10 54 45 96.5t85 63.5q-56 31 -56 106q0 19 3 33t5 25q14 75 70 123.5t135 48.5q70 0 110 -38t40 -100q0 -17 -3 -35l-4 -21q-9 -50 -40 -87.5t-73 -55.5q34 -17 50.5 -47.5t16.5 -70.5q0 -14 -2.5 -29.5t-7.5 -36.5
q-20 -87 -80 -138t-143 -51q-73 0 -116.5 39.5zM370 426q34 31 43 80l4 22q3 14 3 26q0 37 -23 59t-63 22q-46 0 -81 -30.5t-43 -77.5q-7 -39 -7 -49q0 -38 23 -60.5t62 -22.5q48 0 82 31zM306.5 89q37.5 34 50.5 91q5 21 7 32.5t2 23.5q0 43 -24.5 68.5t-70.5 25.5
q-53 0 -91.5 -34t-50.5 -90q-9 -41 -9 -55q0 -44 25.5 -70t70.5 -26q53 0 90.5 34z" />
    <glyph glyph-name="nine" unicode="9" horiz-adv-x="494" 
d="M316 303q-14 -9 -35.5 -15t-43.5 -6q-64 0 -100.5 37.5t-36.5 103.5q0 16 2.5 31.5t5.5 31t5 23.5q18 91 77.5 141t141.5 50q74 0 117.5 -39t43.5 -107q0 -13 -3 -32.5t-9 -51.5q-7 -37 -24 -71t-45 -74l-229 -325h-80zM359 381.5q38 33.5 49 90.5q11 55 11 71
q0 43 -25 67.5t-69 24.5q-52 0 -89.5 -34t-49.5 -93q-11 -52 -11 -69q0 -43 24.5 -67t68.5 -24q53 0 91 33.5z" />
    <glyph glyph-name="colon" unicode=":" horiz-adv-x="194" 
d="M18 92h89l-20 -92h-88zM90 430h89l-20 -92h-88z" />
    <glyph glyph-name="semicolon" unicode=";" horiz-adv-x="195" 
d="M41 93h66l-35 -168l-82 -62zM90 430h89l-20 -92h-88z" />
    <glyph glyph-name="less" unicode="&#x3c;" 
d="M44 247v59l398 162v-71l-305 -121l305 -121v-71z" />
    <glyph glyph-name="equal" unicode="=" 
d="M61 405h398v-67h-398v67zM61 213h398v-66h-398v66z" />
    <glyph glyph-name="greater" unicode="&#x3e;" 
d="M79 155l305 121l-305 121v71l398 -162v-59l-398 -163v71z" />
    <glyph glyph-name="question" unicode="?" horiz-adv-x="430" 
d="M169 237q8 36 19.5 58t41.5 54l69 73q35 37 49.5 60t20.5 51q3 15 3 28q0 35 -21 54t-61 19q-97 0 -122 -109h-73q20 85 74 130t137 45q67 0 103.5 -34t36.5 -92q0 -22 -4 -41q-7 -36 -25.5 -66t-54.5 -68l-74 -80q-22 -23 -31 -40t-15 -43l-13 -58h-73zM130 93h89
l-20 -93h-89z" />
    <glyph glyph-name="at" unicode="@" horiz-adv-x="872" 
d="M199 -92.5q-72 35.5 -111.5 101t-39.5 152.5q0 44 10 88l15 68q25 112 83.5 196t149.5 130.5t207 46.5q96 0 169 -36t113.5 -102t40.5 -152q0 -39 -9 -81l-14 -67q-21 -98 -73 -147t-119 -49q-41 0 -67 18.5t-34 52.5q-46 -71 -135 -71q-62 0 -93.5 33t-31.5 92
q0 26 6 56l17 80q39 182 184 182q38 0 64 -14.5t38 -40.5l9 45h66l-62 -289q-3 -16 -3 -29q0 -29 15 -43.5t40 -14.5q38 0 64 32t43 106l15 67q9 42 9 79q0 107 -66.5 168t-186.5 61q-151 0 -244.5 -81.5t-123.5 -225.5l-15 -71q-9 -42 -9 -80q0 -106 66.5 -168.5
t185.5 -62.5q66 0 119 12.5t108 38.5l19 -57q-61 -31 -120.5 -45t-131.5 -14q-95 0 -167 35.5zM522 237l18 82q5 21 5 45q0 77 -73 77q-95 0 -121 -125l-16 -74q-6 -28 -6 -51q0 -77 74 -77q92 0 119 123z" />
    <glyph glyph-name="A" unicode="A" horiz-adv-x="570" 
d="M413 166h-293l-93 -166h-77l397 690h62l103 -690h-76zM405 228l-49 360l-201 -360h250z" />
    <glyph glyph-name="B" unicode="B" horiz-adv-x="617" 
d="M517.5 307.5q22.5 -33.5 22.5 -79.5q0 -70 -33 -121.5t-91 -79t-131 -27.5h-259l147 690h248q85 0 130.5 -37.5t45.5 -105.5q0 -66 -40 -119.5t-105 -72.5q43 -14 65.5 -47.5zM232 625l-51 -240h161q78 0 129 39.5t51 109.5q0 91 -115 91h-175zM417 107.5
q49 42.5 49 115.5q0 48 -30 72.5t-88 24.5h-181l-54 -255h173q82 0 131 42.5z" />
    <glyph glyph-name="C" unicode="C" horiz-adv-x="610" 
d="M113.5 36.5q-55.5 44.5 -55.5 138.5q0 36 9 81l38 179q29 139 104.5 201.5t185.5 62.5q97 0 149 -48t52 -133q0 -16 -3 -33h-73q2 9 2 25q0 59 -34.5 91t-101.5 32q-82 0 -133.5 -47t-74.5 -154l-39 -180q-8 -38 -8 -64q0 -66 38 -97.5t106 -31.5q74 0 121 38t64 106l1 4
h71l-1 -4q-25 -98 -94.5 -154.5t-174.5 -56.5q-93 0 -148.5 44.5z" />
    <glyph glyph-name="D" unicode="D" horiz-adv-x="620" 
d="M173 690h234q90 0 142 -42.5t52 -134.5q0 -40 -10 -86l-35 -164q-29 -137 -107 -200t-187 -63h-236zM276 66q165 0 206 193l35 165q10 50 10 79q0 63 -33 92t-96 29h-166l-118 -558h162z" />
    <glyph glyph-name="E" unicode="E" horiz-adv-x="556" 
d="M232 624l-51 -240h296l-14 -66h-296l-54 -252h347l-15 -66h-419l147 690h419l-14 -66h-346z" />
    <glyph glyph-name="F" unicode="F" horiz-adv-x="539" 
d="M232 624l-52 -242h296l-14 -66h-296l-67 -316h-73l147 690h419l-14 -66h-346z" />
    <glyph glyph-name="G" unicode="G" horiz-adv-x="610" 
d="M113.5 36.5q-55.5 44.5 -55.5 139.5q0 35 9 80l38 179q29 138 104.5 201t184.5 63q97 0 148.5 -48t51.5 -131q0 -5 -1 -13.5t-1 -20.5h-73l1 27q0 58 -32.5 89t-99.5 31q-83 0 -135 -47.5t-75 -153.5l-39 -180q-8 -40 -8 -68q0 -125 138 -125q80 0 129 41.5t68 131.5
l13 60h-165l14 63h237l-23 -110q-53 -253 -279 -253q-94 0 -149.5 44.5z" />
    <glyph glyph-name="H" unicode="H" horiz-adv-x="629" 
d="M642 690l-147 -690h-73l68 320h-323l-68 -320h-73l147 690h73l-65 -304h323l65 304h73z" />
    <glyph glyph-name="I" unicode="I" horiz-adv-x="249" 
d="M181 690h73l-147 -690h-73z" />
    <glyph glyph-name="J" unicode="J" horiz-adv-x="314" 
d="M-7 66h56q34 0 53 18t27 58l116 548h73l-118 -557q-13 -65 -52.5 -99t-101.5 -34h-68z" />
    <glyph glyph-name="K" unicode="K" horiz-adv-x="592" 
d="M372 417l158 -417h-78l-135 364l-177 -174l-41 -190h-73l147 690h73l-84 -393l401 393h89z" />
    <glyph glyph-name="L" unicode="L" horiz-adv-x="530" 
d="M173 690h73l-132 -624h344l-14 -66h-417z" />
    <glyph glyph-name="M" unicode="M" horiz-adv-x="752" 
d="M765 690l-147 -690h-73l114 535l-277 -397h-57l-112 399l-114 -537h-73l147 690h73l125 -465l321 465h73z" />
    <glyph glyph-name="N" unicode="N" horiz-adv-x="663" 
d="M676 690l-147 -690h-73l-239 556l-118 -556h-73l147 690h73l239 -554l119 554h72z" />
    <glyph glyph-name="O" unicode="O" horiz-adv-x="609" 
d="M113 36.5q-55 44.5 -55 138.5q0 36 9 81l38 179q56 264 284 264q92 0 147 -44.5t55 -138.5q0 -36 -9 -81l-38 -179q-56 -264 -282 -264q-94 0 -149 44.5zM399 105q49 46 71 147l39 180q8 36 8 71q0 130 -137 130q-81 0 -130 -47t-72 -154l-39 -180q-8 -38 -8 -66
q0 -127 141 -127q78 0 127 46z" />
    <glyph glyph-name="P" unicode="P" horiz-adv-x="579" 
d="M551.5 643.5q47.5 -41.5 47.5 -117.5q0 -73 -33.5 -128.5t-94.5 -86.5t-139 -31h-173l-60 -280h-73l146 685h247q85 0 132.5 -41.5zM474.5 389q50.5 44 50.5 127q0 103 -125 103h-169l-58 -274h166q85 0 135.5 44z" />
    <glyph glyph-name="Q" unicode="Q" horiz-adv-x="609" 
d="M536 654.5q55 -44.5 55 -138.5q0 -36 -9 -81l-38 -179q-38 -178 -154 -236l46 -139l-64 -32l-49 148q-33 -5 -61 -5q-94 0 -149 44.5t-55 138.5q0 36 9 81l38 179q56 264 284 264q92 0 147 -44.5zM517 503q0 130 -137 130q-81 0 -130 -47t-72 -154l-39 -180
q-8 -38 -8 -66q0 -127 141 -127q78 0 127 46t71 147l39 180q8 36 8 71z" />
    <glyph glyph-name="R" unicode="R" horiz-adv-x="599" 
d="M549.5 391q-52.5 -62 -143.5 -81l99 -310h-83l-92 303h-166l-65 -303h-73l147 690h254q82 0 128.5 -39t46.5 -111q0 -87 -52.5 -149zM477.5 409q49.5 43 49.5 118q0 48 -30 72.5t-87 24.5h-178l-55 -258h173q78 0 127.5 43z" />
    <glyph glyph-name="S" unicode="S" horiz-adv-x="550" 
d="M72 37q-53 43 -53 124q0 22 2 34h71q-1 -8 -1 -23q0 -114 137 -114q92 0 141 42t49 115q0 42 -25.5 65.5t-78.5 33.5l-78 15q-141 27 -141 143q0 70 32.5 121t91.5 78.5t135 27.5q86 0 138 -41.5t52 -124.5q0 -17 -1 -26h-72q2 18 2 25q0 104 -124 104q-84 0 -132.5 -42
t-48.5 -108q0 -39 24.5 -62t74.5 -32l80 -15q71 -13 108 -48.5t37 -98.5q0 -112 -72 -174t-198 -62q-97 0 -150 43z" />
    <glyph glyph-name="T" unicode="T" horiz-adv-x="483" 
d="M554 624h-198l-132 -624h-72l132 624h-197l14 66h467z" />
    <glyph glyph-name="U" unicode="U" horiz-adv-x="635" 
d="M126.5 44q-57.5 50 -57.5 133q0 25 6 52l98 461h74l-98 -459q-5 -27 -5 -45q0 -59 37 -93t102 -34q75 0 126 45.5t68 126.5l98 459h73l-99 -465q-22 -105 -95 -168t-178 -63q-92 0 -149.5 50z" />
    <glyph glyph-name="V" unicode="V" horiz-adv-x="516" 
d="M97 690h75l57 -572l299 572h77l-372 -690h-59z" />
    <glyph glyph-name="W" unicode="W" horiz-adv-x="789" 
d="M878 690l-319 -690h-65l-26 599l-277 -599h-65l-29 690h70l19 -572l256 572h92l19 -572l258 572h67z" />
    <glyph glyph-name="X" unicode="X" horiz-adv-x="558" 
d="M259 361l-144 329h86l113 -272l228 272h85l-283 -330l156 -360h-87l-124 303l-253 -303h-86z" />
    <glyph glyph-name="Y" unicode="Y" horiz-adv-x="492" 
d="M290 288l-62 -288h-72l61 290l-120 400h78l93 -333l234 333h79z" />
    <glyph glyph-name="Z" unicode="Z" horiz-adv-x="521" 
d="M556 624l-472 -558h357l-14 -66h-441l14 66l471 558h-338l13 66h424z" />
    <glyph glyph-name="bracketleft" unicode="[" horiz-adv-x="295" 
d="M183 740h156l-14 -66h-82l-147 -692h82l-14 -66h-156z" />
    <glyph glyph-name="backslash" unicode="\" horiz-adv-x="392" 
d="M152 690h60l65 -700h-60z" />
    <glyph glyph-name="bracketright" unicode="]" horiz-adv-x="295" 
d="M2 -18h82l147 692h-82l13 66h156l-175 -824h-156z" />
    <glyph glyph-name="asciicircum" unicode="^" 
d="M233 690h60l172 -405h-59l-143 341l-143 -341h-60z" />
    <glyph glyph-name="underscore" unicode="_" horiz-adv-x="457" 
d="M-65 -54h457l-10 -50h-458z" />
    <glyph glyph-name="grave" unicode="`" horiz-adv-x="487" 
d="M244 697h78l73 -125h-57z" />
    <glyph glyph-name="a" unicode="a" horiz-adv-x="510" 
d="M78.5 28q-38.5 34 -38.5 106q0 28 8 68l22 104q23 107 81 157t135 50q45 0 75.5 -19.5t44.5 -57.5l15 71h68l-108 -507h-67l15 68q-55 -74 -151 -74q-61 0 -99.5 34zM303.5 97q39.5 42 53.5 110l19 89q5 23 5 50q0 50 -24 78t-73 28q-113 0 -146 -151l-21 -96
q-6 -25 -6 -56q0 -94 90 -94q63 0 102.5 42z" />
    <glyph glyph-name="b" unicode="b" horiz-adv-x="510" 
d="M150 12.5q-32 18.5 -47 54.5l-14 -67h-68l147 690h68l-54 -254q56 78 144 78q65 0 104 -34.5t39 -107.5q0 -32 -7 -66l-22 -105q-22 -108 -79 -157.5t-131 -49.5q-48 0 -80 18.5zM317.5 89.5q36.5 34.5 54.5 116.5l21 96q6 25 6 56q0 94 -93 94q-60 0 -99 -42.5
t-55 -114.5l-19 -88q-5 -27 -5 -46q0 -49 26 -77.5t77 -28.5q50 0 86.5 34.5z" />
    <glyph glyph-name="c" unicode="c" horiz-adv-x="504" 
d="M89 30q-47 36 -47 114q0 30 7 64l21 98q45 208 233 208q79 0 120 -38t41 -111q0 -17 -1 -25h-66l1 17q0 48 -24.5 71.5t-74.5 23.5q-62 0 -103 -33.5t-59 -116.5l-19 -90q-7 -31 -7 -58q0 -55 29 -77t80 -22q60 0 95 29t44 83h65q-9 -80 -65 -126.5t-144 -46.5
q-79 0 -126 36z" />
    <glyph glyph-name="d" unicode="d" horiz-adv-x="511" 
d="M78.5 28q-38.5 34 -38.5 106q0 28 8 68l22 104q23 107 80 157t133 50q91 0 123 -77l53 254h69l-146 -690h-69l15 67q-54 -73 -150 -73q-61 0 -99.5 34zM303.5 97q39.5 42 53.5 110l19 88q5 23 5 51q0 50 -24 78t-73 28q-112 0 -146 -151l-21 -95q-6 -25 -6 -56
q0 -95 91 -95q62 0 101.5 42z" />
    <glyph glyph-name="e" unicode="e" horiz-adv-x="504" 
d="M418 477.5q44 -36.5 44 -111.5q0 -28 -8 -68l-12 -58h-317l-6 -31q-7 -31 -7 -58q0 -53 28.5 -74.5t78.5 -21.5q52 0 87 26t48 75h66q-16 -78 -70.5 -120t-139.5 -42q-76 0 -121.5 37t-45.5 115q0 27 8 67l18 87q23 110 84.5 162t147.5 52q73 0 117 -36.5zM394 361
q0 49 -26 70t-73 21q-58 0 -99 -33.5t-58 -116.5l-2 -11h248l4 18q6 30 6 52z" />
    <glyph glyph-name="f" unicode="f" horiz-adv-x="328" 
d="M250 567l-13 -60h106l-11 -54h-106l-97 -453h-68l96 453h-65l12 54h64l12 57q12 58 52 92t97 34h53l-12 -54h-42q-64 0 -78 -69z" />
    <glyph glyph-name="g" unicode="g" horiz-adv-x="511" 
d="M49.5 -122.5q-40.5 35.5 -40.5 97.5h68q3 -74 98 -74q118 0 146 133l15 71q-52 -74 -149 -74q-61 0 -100 34.5t-39 107.5q0 27 8 67l15 70q23 108 79.5 157.5t131.5 49.5q47 0 79.5 -20t46.5 -57l15 71h68l-101 -471q-20 -93 -76.5 -145.5t-144.5 -52.5
q-79 0 -119.5 35.5zM311 134.5q39 41.5 54 110.5l12 55q6 27 6 50q0 49 -25 77.5t-74 28.5q-51 0 -88.5 -34t-56.5 -117l-14 -63q-6 -25 -6 -55q0 -94 90 -94q63 0 102 41.5z" />
    <glyph glyph-name="h" unicode="h" horiz-adv-x="522" 
d="M168 690h68l-52 -245q55 68 146 68q66 0 103 -33.5t37 -95.5q0 -24 -6 -51l-71 -333h-68l68 323q5 25 5 41q0 43 -25 65.5t-70 22.5q-55 0 -93.5 -33.5t-51.5 -95.5l-69 -323h-68z" />
    <glyph glyph-name="i" unicode="i" horiz-adv-x="218" 
d="M129 507h68l-108 -507h-67zM164 680h72l-19 -90h-72z" />
    <glyph glyph-name="j" unicode="j" horiz-adv-x="236" 
d="M174 690h72l-19 -90h-72zM-94 -90h41q34 0 53 18t27 57l111 522h68l-112 -526q-14 -65 -53 -99t-100 -34h-48z" />
    <glyph glyph-name="k" unicode="k" horiz-adv-x="489" 
d="M292 311l124 -311h-75l-101 262l-119 -112l-32 -150h-68l147 690h68l-94 -442l272 259h86z" />
    <glyph glyph-name="l" unicode="l" horiz-adv-x="273" 
d="M70 23q-26 23 -26 67q0 16 5 43l119 557h68l-117 -553q-4 -16 -4 -31q0 -23 12.5 -33.5t38.5 -10.5h41l-13 -62h-48q-50 0 -76 23z" />
    <glyph glyph-name="m" unicode="m" horiz-adv-x="826" 
d="M129 507h68l-14 -62q28 33 66 50.5t82 17.5q53 0 87 -22t44 -63q65 85 169 85q68 0 105.5 -34t37.5 -95q0 -24 -6 -51l-71 -333h-68l69 323q5 25 5 40q0 44 -25 66.5t-70 22.5q-56 0 -94 -33.5t-51 -92.5l-69 -326h-69l69 323q5 23 5 40q0 44 -25 66.5t-70 22.5
q-55 0 -93.5 -33.5t-51.5 -95.5l-69 -323h-68z" />
    <glyph glyph-name="n" unicode="n" horiz-adv-x="523" 
d="M129 507h68l-14 -62q28 34 66.5 51t82.5 17q67 0 103 -33.5t36 -94.5q0 -25 -6 -52l-71 -333h-68l68 322q5 27 5 43q0 43 -24 65t-68 22q-55 0 -95 -33.5t-53 -95.5l-69 -323h-68z" />
    <glyph glyph-name="o" unicode="o" horiz-adv-x="505" 
d="M85 28.5q-44 34.5 -44 109.5q0 30 7 64l22 104q23 108 84.5 158t149.5 50q73 0 117 -35t44 -108q0 -27 -8 -65l-22 -104q-23 -109 -84 -158.5t-147 -49.5q-75 0 -119 34.5zM310.5 88.5q39.5 33.5 56.5 117.5l20 96q7 31 7 56q0 94 -100 94q-59 0 -99 -33.5t-58 -116.5
l-20 -97q-6 -31 -6 -54q0 -53 27.5 -74.5t75.5 -21.5q57 0 96.5 33.5z" />
    <glyph glyph-name="p" unicode="p" 
d="M129 507h69l-15 -71q28 38 65.5 57.5t81.5 19.5q64 0 102.5 -35t38.5 -107q0 -31 -7 -65l-23 -109q-23 -106 -79.5 -154.5t-130.5 -48.5q-91 0 -126 77l-47 -223h-68zM374 205l20 96q6 32 6 54q0 52 -25.5 74.5t-66.5 22.5q-61 0 -100.5 -42.5t-54.5 -113.5l-18 -84
q-6 -27 -6 -50q0 -50 25.5 -78.5t76.5 -28.5q112 0 143 150z" />
    <glyph glyph-name="q" unicode="q" horiz-adv-x="510" 
d="M328 67q-54 -73 -150 -73q-61 0 -99.5 34t-38.5 106q0 28 8 68l22 104q23 107 80.5 157t132.5 50q94 0 123 -77l15 71h68l-140 -659h-68zM303.5 97q39.5 42 53.5 110l19 88q5 23 5 50q0 50 -25 78.5t-74 28.5q-110 0 -144 -151l-21 -95q-6 -25 -6 -56q0 -95 90 -95
q63 0 102.5 42z" />
    <glyph glyph-name="r" unicode="r" horiz-adv-x="338" 
d="M129 507h68l-15 -68q29 38 67.5 56.5t81.5 18.5q19 0 37 -3l-15 -68q-21 8 -50 8q-53 0 -93 -37t-53 -100l-67 -314h-68z" />
    <glyph glyph-name="s" unicode="s" horiz-adv-x="466" 
d="M67 33.5q-43 39.5 -43 112.5h64q0 -47 27.5 -70.5t87.5 -23.5q56 0 93 28t37 76q0 31 -19 46t-59 22l-59 11q-63 12 -92 37t-29 73q0 49 24.5 87.5t69 60t104.5 21.5q86 0 126.5 -38t40.5 -107h-66q0 46 -26 67.5t-83 21.5q-55 0 -88.5 -28.5t-33.5 -71.5q0 -28 18 -42.5
t56 -21.5l63 -12q64 -12 93 -39.5t29 -76.5q0 -78 -57 -125t-150 -47q-85 0 -128 39.5z" />
    <glyph glyph-name="t" unicode="t" horiz-adv-x="351" 
d="M159 129q-2 -8 -2 -23q0 -46 53 -46h40l-13 -60h-51q-48 0 -74 24t-26 66q0 19 4 36l70 327h-79l11 54h79l25 116l75 32l-32 -148h115l-11 -54h-115z" />
    <glyph glyph-name="u" unicode="u" horiz-adv-x="523" 
d="M95.5 29q-40.5 35 -40.5 101q0 22 7 59l67 318h69l-67 -313q-7 -35 -7 -55q0 -42 23 -63t73 -21q64 0 98 33.5t49 106.5l67 312h68l-68 -321q-41 -192 -220 -192q-78 0 -118.5 35z" />
    <glyph glyph-name="v" unicode="v" horiz-adv-x="439" 
d="M68 507h72l46 -407l219 407h74l-283 -507h-61z" />
    <glyph glyph-name="w" unicode="w" horiz-adv-x="714" 
d="M68 507h72l28 -406l211 406h62l39 -406l201 406h73l-262 -507h-62l-41 409l-213 -409h-62z" />
    <glyph glyph-name="x" unicode="x" horiz-adv-x="424" 
d="M251 264l104 -264h-70l-82 206l-164 -206h-78l219 263l-98 244h72l75 -189l149 189h77z" />
    <glyph glyph-name="y" unicode="y" horiz-adv-x="440" 
d="M480 507l-315 -562q-29 -51 -65.5 -74t-88.5 -23h-30l13 62h24q37 0 58.5 14.5t40.5 49.5l18 33l-67 500h73l47 -402l219 402h73z" />
    <glyph glyph-name="z" unicode="z" horiz-adv-x="457" 
d="M438 444l-340 -381h259l-13 -63h-339l14 63l339 381h-258l13 63h338z" />
    <glyph glyph-name="braceleft" unicode="{" horiz-adv-x="340" 
d="M76 -12q0 19 4 38l40 191q4 17 4 33q0 25 -13.5 36t-42.5 12l14 65q38 1 58 19.5t29 61.5l39 186q23 110 126 110h50l-13 -61h-36q-23 0 -36.5 -12t-19.5 -39l-38 -179q-12 -56 -30.5 -81.5t-55.5 -37.5q22 -8 32 -22.5t10 -39.5q0 -24 -7 -56l-39 -184q-2 -8 -2 -19
q0 -32 37 -32h35l-12 -61h-50q-83 0 -83 72z" />
    <glyph glyph-name="bar" unicode="|" horiz-adv-x="478" 
d="M221 740h67v-823h-67v823z" />
    <glyph glyph-name="braceright" unicode="}" horiz-adv-x="459" 
d="M59 -23h35q23 0 37 12t20 39l39 184q12 55 30.5 80.5t54.5 37.5q-22 8 -31.5 22.5t-9.5 40.5q0 24 7 56l38 179q2 7 2 19q0 32 -37 32h-36l13 61h50q84 0 84 -74q0 -19 -4 -36l-40 -186q-4 -17 -4 -33q0 -25 13.5 -36t43.5 -12l-15 -65q-37 -1 -57.5 -19.5t-29.5 -61.5
l-40 -191q-23 -110 -126 -110h-50z" />
    <glyph glyph-name="asciitilde" unicode="~" 
d="M292.5 221q-20.5 9 -46.5 26q-23 15 -37.5 22t-31.5 7q-24 0 -41.5 -13t-36.5 -47l-49 30q21 46 54 69.5t73 23.5q25 0 45 -9t48 -26q24 -14 38.5 -21t31.5 -7q24 0 41.5 13.5t36.5 46.5l49 -31q-22 -45 -55 -69t-73 -24q-26 0 -46.5 9z" />
    <glyph glyph-name="uni00A0" unicode="&#xa0;" horiz-adv-x="217" 
 />
    <glyph glyph-name="exclamdown" unicode="&#xa1;" horiz-adv-x="239" 
d="M129 507h90l-20 -94h-90zM104 311h56l-84 -463h-84z" />
    <glyph glyph-name="cent" unicode="&#xa2;" horiz-adv-x="504" 
d="M397 340l1 17q0 85 -78 94l-85 -395q53 4 84.5 32.5t39.5 78.5h65q-9 -79 -62.5 -125t-139.5 -48l-20 -94h-58l21 98q-57 10 -90 46t-33 100q0 30 7 64l21 98q41 192 205 207l20 94h58l-20 -95q64 -7 97.5 -44.5t33.5 -102.5q0 -17 -1 -25h-66zM128.5 89.5
q17.5 -22.5 49.5 -30.5l83 390q-46 -8 -77.5 -42.5t-46.5 -104.5l-19 -90q-7 -31 -7 -58q0 -42 17.5 -64.5z" />
    <glyph glyph-name="sterling" unicode="&#xa3;" horiz-adv-x="436" 
d="M434 671.5q32 -28.5 32 -81.5q0 -17 -5 -42h-72q3 14 3 25q0 28 -16 43.5t-45 15.5q-37 0 -62.5 -23.5t-35.5 -69.5l-39 -183h139l-14 -66h-139l-24 -116q-8 -36 -21 -61.5t-35 -44.5h264l-15 -68h-349l14 62q28 15 43.5 39t23.5 64l26 125h-66l14 66h66l36 172
q17 81 67 126.5t122 45.5q56 0 88 -28.5z" />
    <glyph glyph-name="currency" unicode="&#xa4;" horiz-adv-x="613" 
d="M402 166q-56 -36 -121 -36q-66 0 -108 36l-85 -70l-36 48l85 69q-16 34 -16 70q0 41 17.5 83.5t47.5 74.5l-56 71l57 47l56 -70q57 35 121 35q62 0 107 -35l85 70l37 -47l-86 -70q17 -32 17 -72q0 -42 -17.5 -83.5t-47.5 -73.5l56 -70l-57 -48zM374 214q38 23 61 61.5
t23 82.5q0 46 -29 75.5t-78 29.5q-45 0 -83 -24t-60 -63.5t-22 -81.5q0 -46 29 -74.5t78 -28.5q43 0 81 23z" />
    <glyph glyph-name="yen" unicode="&#xa5;" horiz-adv-x="454" 
d="M170 155h-142l12 56h142l14 67h-141l12 57h122l-86 355h82l67 -325l204 325h81l-236 -355h122l-13 -57h-141l-14 -67h141l-12 -56h-141l-33 -155h-73z" />
    <glyph glyph-name="brokenbar" unicode="&#xa6;" horiz-adv-x="478" 
d="M221 740h67v-352h-67v352zM221 271h67v-354h-67v354z" />
    <glyph glyph-name="section" unicode="&#xa7;" horiz-adv-x="511" 
d="M69.5 -139q-37.5 29 -37.5 84q0 22 6 51h69q-4 -17 -4 -34q0 -66 74 -66q44 0 72.5 23t36.5 65q3 15 3 27q0 32 -24.5 51.5t-80.5 33.5q-105 26 -105 126q0 25 6 53q12 58 46.5 100.5t86.5 59.5q-54 33 -54 93q0 53 24 95.5t66.5 66.5t97.5 24q64 0 97 -29t33 -81
q0 -26 -5 -47h-68q4 22 4 31q0 62 -69 62q-48 0 -77 -30t-29 -82q0 -31 22 -49t77 -34q57 -16 81 -46t24 -80q0 -24 -6 -54q-11 -57 -46 -99.5t-85 -58.5q58 -31 58 -93q0 -17 -5 -42q-14 -69 -63 -109.5t-121 -40.5q-67 0 -104.5 29zM318 189.5q34 30.5 46 85.5q4 19 4 37
q0 39 -21 59.5t-61 20.5q-49 0 -82.5 -30.5t-46.5 -86.5q-4 -17 -4 -36q0 -38 21.5 -59t61.5 -21q48 0 82 30.5zM322 707z" />
    <glyph glyph-name="dieresis" unicode="&#xa8;" horiz-adv-x="500" 
d="M213 664h76l-18 -86h-76zM384 664h76l-18 -86h-76z" />
    <glyph glyph-name="copyright" unicode="&#xa9;" horiz-adv-x="839" 
d="M258.5 34.5q-78.5 44.5 -121.5 124t-43 181.5t43.5 181.5t121.5 124t179 44.5t179 -44.5t121.5 -124t43.5 -181.5t-43.5 -181.5t-121.5 -124t-179 -44.5t-179.5 44.5zM589 80q65 37 100.5 104t35.5 156t-35.5 156t-100.5 104t-151 37t-151.5 -37t-101 -104t-35.5 -156
t35.5 -156t101 -104t151.5 -37t151 37zM333 185q-40 37 -40 119v77q0 82 40 119t108 37q65 0 103 -34t38 -92v-5h-52v3q0 38 -23.5 58.5t-63.5 20.5q-46 0 -71 -24.5t-25 -85.5v-71q0 -62 25 -86.5t71 -24.5q40 0 63.5 21t23.5 58v4h52v-5q0 -58 -38 -92t-102 -34
q-69 0 -109 37z" />
    <glyph glyph-name="ordfeminine" unicode="&#xaa;" horiz-adv-x="332" 
d="M123 447.5q-23 21.5 -23 65.5q0 17 5 42l13 64q13 65 47 97t80 32q52 0 73 -46l9 42h62l-66 -314h-65l9 37q-28 -41 -83 -41q-38 0 -61 21.5zM260.5 504q18.5 20 25.5 54l12 56q3 14 3 25q0 23 -12 37t-36 14q-55 0 -71 -73l-13 -61q-3 -13 -3 -25q0 -24 12.5 -35.5
t33.5 -11.5q30 0 48.5 20zM256 847z" />
    <glyph glyph-name="guillemotleft" unicode="&#xab;" horiz-adv-x="478" 
d="M27 264l237 198l-17 -83l-138 -115l89 -115l-18 -83zM210 264l237 198l-17 -83l-138 -115l89 -115l-18 -83z" />
    <glyph glyph-name="logicalnot" unicode="&#xac;" 
d="M382 264h-332v62h401v-196h-69v134z" />
    <glyph glyph-name="uni00AD" unicode="&#xad;" horiz-adv-x="394" 
d="M86 380h275l-13 -66h-275z" />
    <glyph glyph-name="registered" unicode="&#xae;" horiz-adv-x="546" 
d="M228.5 331q-42.5 25 -67 69t-24.5 98t24.5 97.5t67.5 68.5t96 25q54 0 96.5 -25t67 -68.5t24.5 -97.5q0 -55 -24 -98.5t-67 -68.5t-97 -25t-96.5 25zM436.5 382.5q43.5 45.5 43.5 115.5t-43.5 115t-111.5 45t-111.5 -45t-43.5 -115t43.5 -115.5t111.5 -45.5t111.5 45.5z
M255 606h81q34 0 52.5 -16.5t18.5 -46.5q0 -21 -10.5 -36.5t-28.5 -22.5l44 -92h-39l-42 88h-40v-88h-36v214zM336 512q35 0 35 31t-35 31h-45v-62h45z" />
    <glyph glyph-name="macron" unicode="&#xaf;" horiz-adv-x="487" 
d="M204 652h260l-13 -62h-260z" />
    <glyph glyph-name="degree" unicode="&#xb0;" horiz-adv-x="367" 
d="M149 460q-40 40 -40 100t40 100t100 40q59 0 99.5 -40t40.5 -100t-40.5 -100t-99.5 -40q-60 0 -100 40zM312 495q25 26 25 65q0 40 -24.5 66t-63.5 26t-64 -26t-25 -66q0 -39 25 -65t64 -26q38 0 63 26z" />
    <glyph glyph-name="plusminus" unicode="&#xb1;" 
d="M437 345v-66h-166v-166h-66v166h-166v66h166v166h66v-166h166zM39 62h398v-66h-398v66z" />
    <glyph glyph-name="uni00B2" unicode="&#xb2;" horiz-adv-x="385" 
d="M126 482l178 188q43 46 43 89q0 19 -10.5 29t-30.5 10q-24 0 -41 -15t-23 -45l-2 -11h-65l3 15q11 51 49.5 81.5t93.5 30.5q45 0 71.5 -22t26.5 -59q0 -40 -17.5 -72t-49.5 -65l-138 -147h146l-12 -59h-234z" />
    <glyph glyph-name="uni00B3" unicode="&#xb3;" horiz-adv-x="359" 
d="M142 444.5q-27 20.5 -27 56.5q0 13 7 41h60q-3 -16 -3 -23q0 -18 12 -29t33 -11q35 0 55 29t20 65q0 21 -12.5 33t-36.5 12h-21l12 56h21q33 0 51.5 25.5t18.5 58.5q0 19 -10.5 29.5t-30.5 10.5q-25 0 -41.5 -14t-21.5 -38l-2 -10h-61l2 11q9 49 44.5 78t89.5 29
q45 0 72 -23t27 -64q0 -37 -20.5 -70.5t-57.5 -46.5q22 -8 33 -26.5t11 -43.5q0 -42 -19.5 -77.5t-54 -57t-76.5 -21.5q-47 0 -74 20.5z" />
    <glyph glyph-name="acute" unicode="&#xb4;" horiz-adv-x="500" 
d="M351 697h84l-146 -125h-63z" />
    <glyph glyph-name="uni00B5" unicode="&#xb5;" horiz-adv-x="516" 
d="M129 507h69l-70 -329q-5 -25 -5 -45q0 -38 24 -58.5t66 -20.5q50 0 90.5 33t52.5 91l70 329h69l-108 -507h-68l13 60q-57 -68 -143 -68q-65 0 -92 39l-39 -183h-68z" />
    <glyph glyph-name="paragraph" unicode="&#xb6;" horiz-adv-x="572" 
d="M271 272q-71 5 -110 47.5t-39 109.5q0 25 6 52q12 59 47.5 106.5t90.5 75t123 27.5h196l-179 -842h-67l165 777h-91l-165 -777h-67z" />
    <glyph glyph-name="periodcentered" unicode="&#xb7;" horiz-adv-x="239" 
d="M89 316h88l-19 -93h-89z" />
    <glyph glyph-name="cedilla" unicode="&#xb8;" horiz-adv-x="487" 
d="M200 12h60l-86 -162h-72z" />
    <glyph glyph-name="uni00B9" unicode="&#xb9;" horiz-adv-x="251" 
d="M238 774l-85 -55l15 74l85 54h70l-89 -417h-69z" />
    <glyph glyph-name="ordmasculine" unicode="&#xba;" horiz-adv-x="330" 
d="M130 448.5q-30 22.5 -30 69.5q0 16 5 39l13 60q15 68 51 99.5t94 31.5q50 0 78.5 -23t28.5 -70q0 -18 -4 -37l-12 -61q-25 -131 -144 -131q-50 0 -80 22.5zM262.5 501q17.5 17 26.5 57l13 59q3 15 3 26q0 24 -13.5 35.5t-36.5 11.5q-28 0 -46 -17t-27 -56l-13 -61
q-3 -13 -3 -25q0 -47 52 -47q27 0 44.5 17zM265 847z" />
    <glyph glyph-name="guillemotright" unicode="&#xbb;" horiz-adv-x="479" 
d="M54 149l137 115l-89 115l18 83l153 -198l-237 -198zM237 149l137 115l-89 115l18 83l153 -198l-237 -198z" />
    <glyph glyph-name="onequarter" unicode="&#xbc;" horiz-adv-x="774" 
d="M205 617l-85 -55l15 74l85 54h70l-89 -417h-69zM696 75h-39l-16 -75h-69l16 75h-156l12 59l177 283h68l-177 -283h89l21 98h68l-21 -98h40zM589 690h62l-520 -690h-63z" />
    <glyph glyph-name="onehalf" unicode="&#xbd;" horiz-adv-x="814" 
d="M205 617l-85 -55l15 74l85 54h70l-89 -417h-69zM463 52l178 188q43 46 43 89q0 19 -10.5 29t-30.5 10q-24 0 -41 -15t-23 -45l-2 -11h-65l3 15q11 51 49.5 81.5t93.5 30.5q45 0 71.5 -22t26.5 -59q0 -40 -17.5 -72t-49.5 -65l-138 -147h146l-12 -59h-234zM589 690h62
l-520 -690h-63z" />
    <glyph glyph-name="threequarters" unicode="&#xbe;" horiz-adv-x="882" 
d="M107 287.5q-27 20.5 -27 56.5q0 13 7 41h60q-3 -16 -3 -23q0 -18 12 -29t33 -11q35 0 55 29t20 65q0 21 -12.5 33t-36.5 12h-21l12 56h21q33 0 51.5 25.5t18.5 58.5q0 19 -10.5 29.5t-30.5 10.5q-25 0 -41.5 -14t-21.5 -38l-2 -10h-61l2 11q9 49 44.5 78t89.5 29
q45 0 72 -23t27 -64q0 -37 -20.5 -70.5t-57.5 -46.5q22 -8 33 -26.5t11 -43.5q0 -42 -19.5 -77.5t-54 -57t-76.5 -21.5q-47 0 -74 20.5zM804 75h-39l-16 -75h-69l16 75h-156l12 59l177 283h68l-177 -283h89l21 98h68l-21 -98h40zM697 690h62l-520 -690h-63z" />
    <glyph glyph-name="questiondown" unicode="&#xbf;" horiz-adv-x="430" 
d="M230 507h89l-20 -93h-89zM28.5 -128q-38.5 34 -38.5 92q0 53 22 94t67 86l60 60q26 26 35.5 43.5t16.5 49.5l8 35h73l-9 -36q-10 -41 -22.5 -65t-45.5 -57l-59 -58q-37 -36 -54.5 -68.5t-17.5 -71.5q0 -35 21 -54t63 -19q99 0 119 110h73q-16 -84 -69 -129.5t-136 -45.5
q-68 0 -106.5 34z" />
    <glyph glyph-name="Agrave" unicode="&#xc0;" horiz-adv-x="570" 
d="M413 166h-293l-93 -166h-77l397 690h62l103 -690h-76zM405 228l-49 360l-201 -360h250zM282 866h78l73 -125h-57z" />
    <glyph glyph-name="Aacute" unicode="&#xc1;" horiz-adv-x="570" 
d="M413 166h-293l-93 -166h-77l397 690h62l103 -690h-76zM405 228l-49 360l-201 -360h250zM433 866h84l-146 -125h-63z" />
    <glyph glyph-name="Acircumflex" unicode="&#xc2;" horiz-adv-x="570" 
d="M413 166h-293l-93 -166h-77l397 690h62l103 -690h-76zM405 228l-49 360l-201 -360h250zM376 875h55l76 -144h-62l-51 95l-94 -95h-61z" />
    <glyph glyph-name="Atilde" unicode="&#xc3;" horiz-adv-x="570" 
d="M413 166h-293l-93 -166h-77l397 690h62l103 -690h-76zM405 228l-49 360l-201 -360h250zM263 799q21 19 39 28.5t38 9.5q16 0 28 -5t27 -15q14 -10 25 -14.5t24 -4.5q18 0 33.5 8.5t40.5 30.5l-13 -61q-40 -37 -77 -37q-17 0 -29 5t-28 15t-25.5 14t-21.5 4
q-18 0 -33.5 -8.5t-40.5 -30.5z" />
    <glyph glyph-name="Adieresis" unicode="&#xc4;" horiz-adv-x="570" 
d="M413 166h-293l-93 -166h-77l397 690h62l103 -690h-76zM405 228l-49 360l-201 -360h250zM270 833h76l-18 -86h-76zM441 833h76l-18 -86h-76z" />
    <glyph glyph-name="Aring" unicode="&#xc5;" horiz-adv-x="570" 
d="M413 166h-293l-93 -166h-77l396 689q-23 11 -36 33t-13 49q0 40 25.5 66t65.5 26q39 0 65 -26t26 -66q0 -33 -19 -57t-50 -32l102 -682h-76zM351 809.5q-15 -15.5 -15 -38.5t15 -38t37 -15t37 15t15 38t-15 38.5t-37 15.5t-37 -15.5zM405 228l-49 360l-201 -360h250z
M376 690z" />
    <glyph glyph-name="AE" unicode="&#xc6;" horiz-adv-x="871" 
d="M573 624l-51 -240h269l-13 -66h-270l-53 -252h320l-15 -66h-392l36 171h-242l-129 -171h-83l522 690h435l-14 -66h-320zM500 620l-291 -387h209z" />
    <glyph glyph-name="Ccedilla" unicode="&#xc7;" horiz-adv-x="610" 
d="M520 485q2 9 2 25q0 59 -34.5 91t-101.5 32q-82 0 -133.5 -47t-74.5 -154l-39 -180q-8 -38 -8 -64q0 -66 38 -97.5t106 -31.5q74 0 121 38t64 106l1 4h71l-1 -4q-23 -90 -84.5 -146t-154.5 -64l-76 -143h-72l87 143q-80 7 -126.5 51.5t-46.5 130.5q0 36 9 81l38 179
q29 139 104.5 201.5t185.5 62.5q97 0 149 -48t52 -133q0 -16 -3 -33h-73z" />
    <glyph glyph-name="Egrave" unicode="&#xc8;" horiz-adv-x="556" 
d="M232 624l-51 -240h296l-14 -66h-296l-54 -252h347l-15 -66h-419l147 690h419l-14 -66h-346zM294 880h78l73 -125h-57z" />
    <glyph glyph-name="Eacute" unicode="&#xc9;" horiz-adv-x="556" 
d="M232 624l-51 -240h296l-14 -66h-296l-54 -252h347l-15 -66h-419l147 690h419l-14 -66h-346zM445 880h84l-146 -125h-63z" />
    <glyph glyph-name="Ecircumflex" unicode="&#xca;" horiz-adv-x="556" 
d="M232 624l-51 -240h296l-14 -66h-296l-54 -252h347l-15 -66h-419l147 690h419l-14 -66h-346zM388 889h55l76 -144h-62l-51 95l-94 -95h-61z" />
    <glyph glyph-name="Edieresis" unicode="&#xcb;" horiz-adv-x="556" 
d="M232 624l-51 -240h296l-14 -66h-296l-54 -252h347l-15 -66h-419l147 690h419l-14 -66h-346zM282 847h76l-18 -86h-76zM453 847h76l-18 -86h-76z" />
    <glyph glyph-name="Igrave" unicode="&#xcc;" horiz-adv-x="249" 
d="M181 690h73l-147 -690h-73zM138 880h78l73 -125h-57z" />
    <glyph glyph-name="Iacute" unicode="&#xcd;" horiz-adv-x="249" 
d="M181 690h73l-147 -690h-73zM289 880h84l-146 -125h-63z" />
    <glyph glyph-name="Icircumflex" unicode="&#xce;" horiz-adv-x="249" 
d="M181 690h73l-147 -690h-73zM232 889h55l76 -144h-62l-51 95l-94 -95h-61z" />
    <glyph glyph-name="Idieresis" unicode="&#xcf;" horiz-adv-x="249" 
d="M181 690h73l-147 -690h-73zM126 847h76l-18 -86h-76zM297 847h76l-18 -86h-76z" />
    <glyph glyph-name="Eth" unicode="&#xd0;" horiz-adv-x="657" 
d="M586 647.5q52 -42.5 52 -134.5q0 -40 -10 -86l-35 -164q-29 -137 -107 -200t-187 -63h-236l67 316h-80l14 66h80l66 308h234q90 0 142 -42.5zM564 503q0 63 -33 92t-96 29h-166l-51 -242h150l-13 -66h-151l-53 -250h162q165 0 206 193l35 165q10 50 10 79z" />
    <glyph glyph-name="Ntilde" unicode="&#xd1;" horiz-adv-x="663" 
d="M676 690l-147 -690h-73l-239 556l-118 -556h-73l147 690h73l239 -554l119 554h72zM316 813q21 19 39 28.5t38 9.5q16 0 28 -5t27 -15q14 -10 25 -14.5t24 -4.5q18 0 33.5 8.5t40.5 30.5l-13 -61q-40 -37 -77 -37q-17 0 -29 5t-28 15t-25.5 14t-21.5 4q-18 0 -33.5 -8.5
t-40.5 -30.5z" />
    <glyph glyph-name="Ograve" unicode="&#xd2;" horiz-adv-x="609" 
d="M113 36.5q-55 44.5 -55 138.5q0 36 9 81l38 179q56 264 284 264q92 0 147 -44.5t55 -138.5q0 -36 -9 -81l-38 -179q-56 -264 -282 -264q-94 0 -149 44.5zM399 105q49 46 71 147l39 180q8 36 8 71q0 130 -137 130q-81 0 -130 -47t-72 -154l-39 -180q-8 -38 -8 -66
q0 -127 141 -127q78 0 127 46zM308 880h78l73 -125h-57z" />
    <glyph glyph-name="Oacute" unicode="&#xd3;" horiz-adv-x="609" 
d="M113 36.5q-55 44.5 -55 138.5q0 36 9 81l38 179q56 264 284 264q92 0 147 -44.5t55 -138.5q0 -36 -9 -81l-38 -179q-56 -264 -282 -264q-94 0 -149 44.5zM399 105q49 46 71 147l39 180q8 36 8 71q0 130 -137 130q-81 0 -130 -47t-72 -154l-39 -180q-8 -38 -8 -66
q0 -127 141 -127q78 0 127 46zM459 880h84l-146 -125h-63z" />
    <glyph glyph-name="Ocircumflex" unicode="&#xd4;" horiz-adv-x="609" 
d="M113 36.5q-55 44.5 -55 138.5q0 36 9 81l38 179q56 264 284 264q92 0 147 -44.5t55 -138.5q0 -36 -9 -81l-38 -179q-56 -264 -282 -264q-94 0 -149 44.5zM399 105q49 46 71 147l39 180q8 36 8 71q0 130 -137 130q-81 0 -130 -47t-72 -154l-39 -180q-8 -38 -8 -66
q0 -127 141 -127q78 0 127 46zM402 889h55l76 -144h-62l-51 95l-94 -95h-61z" />
    <glyph glyph-name="Otilde" unicode="&#xd5;" horiz-adv-x="609" 
d="M113 36.5q-55 44.5 -55 138.5q0 36 9 81l38 179q56 264 284 264q92 0 147 -44.5t55 -138.5q0 -36 -9 -81l-38 -179q-56 -264 -282 -264q-94 0 -149 44.5zM399 105q49 46 71 147l39 180q8 36 8 71q0 130 -137 130q-81 0 -130 -47t-72 -154l-39 -180q-8 -38 -8 -66
q0 -127 141 -127q78 0 127 46zM289 813q21 19 39 28.5t38 9.5q16 0 28 -5t27 -15q14 -10 25 -14.5t24 -4.5q18 0 33.5 8.5t40.5 30.5l-13 -61q-40 -37 -77 -37q-17 0 -29 5t-28 15t-25.5 14t-21.5 4q-18 0 -33.5 -8.5t-40.5 -30.5z" />
    <glyph glyph-name="Odieresis" unicode="&#xd6;" horiz-adv-x="609" 
d="M113 36.5q-55 44.5 -55 138.5q0 36 9 81l38 179q56 264 284 264q92 0 147 -44.5t55 -138.5q0 -36 -9 -81l-38 -179q-56 -264 -282 -264q-94 0 -149 44.5zM399 105q49 46 71 147l39 180q8 36 8 71q0 130 -137 130q-81 0 -130 -47t-72 -154l-39 -180q-8 -38 -8 -66
q0 -127 141 -127q78 0 127 46zM296 847h76l-18 -86h-76zM467 847h76l-18 -86h-76z" />
    <glyph glyph-name="multiply" unicode="&#xd7;" 
d="M306 277l123 -124l-44 -44l-124 123l-123 -123l-45 44l124 124l-124 123l45 44l123 -123l124 123l44 -44z" />
    <glyph glyph-name="Oslash" unicode="&#xd8;" horiz-adv-x="609" 
d="M567 617q24 -42 24 -101q0 -36 -9 -81l-38 -179q-56 -264 -282 -264q-98 0 -150 46l-46 -58h-58l74 94q-24 42 -24 101q0 36 9 81l38 179q56 264 284 264q96 0 148 -46l45 57h58zM136 143l354 450q-34 40 -110 40q-81 0 -130 -47t-72 -154l-39 -180q-8 -38 -8 -66
q0 -21 5 -43zM512 547l-353 -449q35 -39 113 -39t127 46t71 147l39 180q8 36 8 71q0 22 -5 44z" />
    <glyph glyph-name="Ugrave" unicode="&#xd9;" horiz-adv-x="635" 
d="M126.5 44q-57.5 50 -57.5 133q0 25 6 52l98 461h74l-98 -459q-5 -27 -5 -45q0 -59 37 -93t102 -34q75 0 126 45.5t68 126.5l98 459h73l-99 -465q-22 -105 -95 -168t-178 -63q-92 0 -149.5 50zM326 880h78l73 -125h-57z" />
    <glyph glyph-name="Uacute" unicode="&#xda;" horiz-adv-x="635" 
d="M126.5 44q-57.5 50 -57.5 133q0 25 6 52l98 461h74l-98 -459q-5 -27 -5 -45q0 -59 37 -93t102 -34q75 0 126 45.5t68 126.5l98 459h73l-99 -465q-22 -105 -95 -168t-178 -63q-92 0 -149.5 50zM477 880h84l-146 -125h-63z" />
    <glyph glyph-name="Ucircumflex" unicode="&#xdb;" horiz-adv-x="635" 
d="M126.5 44q-57.5 50 -57.5 133q0 25 6 52l98 461h74l-98 -459q-5 -27 -5 -45q0 -59 37 -93t102 -34q75 0 126 45.5t68 126.5l98 459h73l-99 -465q-22 -105 -95 -168t-178 -63q-92 0 -149.5 50zM420 889h55l76 -144h-62l-51 95l-94 -95h-61z" />
    <glyph glyph-name="Udieresis" unicode="&#xdc;" horiz-adv-x="635" 
d="M126.5 44q-57.5 50 -57.5 133q0 25 6 52l98 461h74l-98 -459q-5 -27 -5 -45q0 -59 37 -93t102 -34q75 0 126 45.5t68 126.5l98 459h73l-99 -465q-22 -105 -95 -168t-178 -63q-92 0 -149.5 50zM314 847h76l-18 -86h-76zM485 847h76l-18 -86h-76z" />
    <glyph glyph-name="Yacute" unicode="&#xdd;" horiz-adv-x="492" 
d="M290 288l-62 -288h-72l61 290l-120 400h78l93 -333l234 333h79zM404 880h84l-146 -125h-63z" />
    <glyph glyph-name="Thorn" unicode="&#xde;" horiz-adv-x="579" 
d="M516 525.5q47 -38.5 47 -109.5q0 -19 -5 -47q-17 -97 -86.5 -153.5t-173.5 -56.5h-165l-34 -159h-73l147 690h73l-27 -126h165q85 0 132 -38.5zM488 401q0 98 -124 98h-159l-58 -274h159q74 0 120.5 35t58.5 107q3 18 3 34z" />
    <glyph glyph-name="germandbls" unicode="&#xdf;" horiz-adv-x="506" 
d="M210 58h27q46 0 70 16t36.5 48.5t28.5 102.5q15 68 15 100q0 36 -19 52t-66 16h-21l13 62h27q56 0 84.5 30t28.5 82q0 33 -23.5 50.5t-69.5 17.5q-60 0 -94 -28.5t-47 -91.5l-110 -515h-68l107 506q20 95 71.5 143t147.5 48q74 0 115.5 -32t41.5 -86q0 -50 -24.5 -90.5
t-70.5 -61.5q26 -13 37 -33t11 -51q0 -41 -17 -118q-20 -89 -42 -136.5t-62 -70t-111 -22.5h-29z" />
    <glyph glyph-name="agrave" unicode="&#xe0;" horiz-adv-x="510" 
d="M78.5 28q-38.5 34 -38.5 106q0 28 8 68l22 104q23 107 81 157t135 50q45 0 75.5 -19.5t44.5 -57.5l15 71h68l-108 -507h-67l15 68q-55 -74 -151 -74q-61 0 -99.5 34zM303.5 97q39.5 42 53.5 110l19 89q5 23 5 50q0 50 -24 78t-73 28q-113 0 -146 -151l-21 -96
q-6 -25 -6 -56q0 -94 90 -94q63 0 102.5 42zM215 697h78l73 -125h-57z" />
    <glyph glyph-name="aacute" unicode="&#xe1;" horiz-adv-x="510" 
d="M78.5 28q-38.5 34 -38.5 106q0 28 8 68l22 104q23 107 81 157t135 50q45 0 75.5 -19.5t44.5 -57.5l15 71h68l-108 -507h-67l15 68q-55 -74 -151 -74q-61 0 -99.5 34zM303.5 97q39.5 42 53.5 110l19 89q5 23 5 50q0 50 -24 78t-73 28q-113 0 -146 -151l-21 -96
q-6 -25 -6 -56q0 -94 90 -94q63 0 102.5 42zM366 697h84l-146 -125h-63z" />
    <glyph glyph-name="acircumflex" unicode="&#xe2;" horiz-adv-x="510" 
d="M78.5 28q-38.5 34 -38.5 106q0 28 8 68l22 104q23 107 81 157t135 50q45 0 75.5 -19.5t44.5 -57.5l15 71h68l-108 -507h-67l15 68q-55 -74 -151 -74q-61 0 -99.5 34zM303.5 97q39.5 42 53.5 110l19 89q5 23 5 50q0 50 -24 78t-73 28q-113 0 -146 -151l-21 -96
q-6 -25 -6 -56q0 -94 90 -94q63 0 102.5 42zM309 706h55l76 -144h-62l-51 95l-94 -95h-61z" />
    <glyph glyph-name="atilde" unicode="&#xe3;" horiz-adv-x="510" 
d="M78.5 28q-38.5 34 -38.5 106q0 28 8 68l22 104q23 107 81 157t135 50q45 0 75.5 -19.5t44.5 -57.5l15 71h68l-108 -507h-67l15 68q-55 -74 -151 -74q-61 0 -99.5 34zM303.5 97q39.5 42 53.5 110l19 89q5 23 5 50q0 50 -24 78t-73 28q-113 0 -146 -151l-21 -96
q-6 -25 -6 -56q0 -94 90 -94q63 0 102.5 42zM196 630q21 19 39 28.5t38 9.5q16 0 28 -5t27 -15q14 -10 25 -14.5t24 -4.5q18 0 33.5 8.5t40.5 30.5l-13 -61q-40 -37 -77 -37q-17 0 -29 5t-28 15t-25.5 14t-21.5 4q-18 0 -33.5 -8.5t-40.5 -30.5z" />
    <glyph glyph-name="adieresis" unicode="&#xe4;" horiz-adv-x="510" 
d="M78.5 28q-38.5 34 -38.5 106q0 28 8 68l22 104q23 107 81 157t135 50q45 0 75.5 -19.5t44.5 -57.5l15 71h68l-108 -507h-67l15 68q-55 -74 -151 -74q-61 0 -99.5 34zM303.5 97q39.5 42 53.5 110l19 89q5 23 5 50q0 50 -24 78t-73 28q-113 0 -146 -151l-21 -96
q-6 -25 -6 -56q0 -94 90 -94q63 0 102.5 42zM203 664h76l-18 -86h-76zM374 664h76l-18 -86h-76z" />
    <glyph glyph-name="aring" unicode="&#xe5;" horiz-adv-x="510" 
d="M78.5 28q-38.5 34 -38.5 106q0 28 8 68l22 104q23 107 81 157t135 50q45 0 75.5 -19.5t44.5 -57.5l15 71h68l-108 -507h-67l15 68q-55 -74 -151 -74q-61 0 -99.5 34zM303.5 97q39.5 42 53.5 110l19 89q5 23 5 50q0 50 -24 78t-73 28q-113 0 -146 -151l-21 -96
q-6 -25 -6 -56q0 -94 90 -94q63 0 102.5 42zM255.5 585q-25.5 26 -25.5 65q0 40 25.5 66t65.5 26q39 0 65 -26t26 -66q0 -39 -26 -65t-65 -26q-40 0 -65.5 26zM357.5 612q14.5 15 14.5 38t-14.5 38.5t-36.5 15.5t-37 -15.5t-15 -38.5t15 -38t37 -15t36.5 15z" />
    <glyph glyph-name="ae" unicode="&#xe6;" horiz-adv-x="812" 
d="M74 25.5q-40 31.5 -40 92.5q0 50 26.5 89t74 60t108.5 21h132q16 72 16 90q0 79 -97 79q-54 0 -86 -24t-41 -67h-67q14 70 68 109t137 39q107 0 142 -70q30 36 75 53t95 17q72 0 113 -35.5t41 -110.5q0 -33 -8 -68l-13 -60h-316l-6 -30q-4 -17 -6 -32.5t-2 -33.5
q0 -47 28 -68t75 -21q53 0 87.5 25t51.5 76h67q-25 -81 -80 -121.5t-129 -40.5q-120 0 -155 80q-32 -39 -75.5 -59.5t-102.5 -20.5q-73 0 -113 31.5zM692 291q11 48 11 72q0 89 -100 89q-126 0 -154 -137l-5 -24h248zM302.5 85q36.5 36 52.5 112l9 41h-121q-67 0 -104 -31
t-37 -81q0 -38 23.5 -57.5t73.5 -19.5q67 0 103.5 36z" />
    <glyph glyph-name="ccedilla" unicode="&#xe7;" horiz-adv-x="504" 
d="M397 340l1 17q0 48 -24.5 71.5t-74.5 23.5q-62 0 -103 -33.5t-59 -116.5l-19 -90q-7 -31 -7 -58q0 -55 29 -77t80 -22q60 0 95 29t44 83h65q-8 -74 -56.5 -119.5t-126.5 -52.5l-77 -145h-72l88 146q-64 7 -101 43t-37 105q0 30 7 64l21 98q45 208 233 208q79 0 120 -38
t41 -111q0 -17 -1 -25h-66z" />
    <glyph glyph-name="egrave" unicode="&#xe8;" horiz-adv-x="504" 
d="M418 477.5q44 -36.5 44 -111.5q0 -28 -8 -68l-12 -58h-317l-6 -31q-7 -31 -7 -58q0 -53 28.5 -74.5t78.5 -21.5q52 0 87 26t48 75h66q-16 -78 -70.5 -120t-139.5 -42q-76 0 -121.5 37t-45.5 115q0 27 8 67l18 87q23 110 84.5 162t147.5 52q73 0 117 -36.5zM394 361
q0 49 -26 70t-73 21q-58 0 -99 -33.5t-58 -116.5l-2 -11h248l4 18q6 30 6 52zM221 697h78l73 -125h-57z" />
    <glyph glyph-name="eacute" unicode="&#xe9;" horiz-adv-x="504" 
d="M418 477.5q44 -36.5 44 -111.5q0 -28 -8 -68l-12 -58h-317l-6 -31q-7 -31 -7 -58q0 -53 28.5 -74.5t78.5 -21.5q52 0 87 26t48 75h66q-16 -78 -70.5 -120t-139.5 -42q-76 0 -121.5 37t-45.5 115q0 27 8 67l18 87q23 110 84.5 162t147.5 52q73 0 117 -36.5zM394 361
q0 49 -26 70t-73 21q-58 0 -99 -33.5t-58 -116.5l-2 -11h248l4 18q6 30 6 52zM372 697h84l-146 -125h-63z" />
    <glyph glyph-name="ecircumflex" unicode="&#xea;" horiz-adv-x="504" 
d="M418 477.5q44 -36.5 44 -111.5q0 -28 -8 -68l-12 -58h-317l-6 -31q-7 -31 -7 -58q0 -53 28.5 -74.5t78.5 -21.5q52 0 87 26t48 75h66q-16 -78 -70.5 -120t-139.5 -42q-76 0 -121.5 37t-45.5 115q0 27 8 67l18 87q23 110 84.5 162t147.5 52q73 0 117 -36.5zM394 361
q0 49 -26 70t-73 21q-58 0 -99 -33.5t-58 -116.5l-2 -11h248l4 18q6 30 6 52zM315 706h55l76 -144h-62l-51 95l-94 -95h-61z" />
    <glyph glyph-name="edieresis" unicode="&#xeb;" horiz-adv-x="504" 
d="M418 477.5q44 -36.5 44 -111.5q0 -28 -8 -68l-12 -58h-317l-6 -31q-7 -31 -7 -58q0 -53 28.5 -74.5t78.5 -21.5q52 0 87 26t48 75h66q-16 -78 -70.5 -120t-139.5 -42q-76 0 -121.5 37t-45.5 115q0 27 8 67l18 87q23 110 84.5 162t147.5 52q73 0 117 -36.5zM394 361
q0 49 -26 70t-73 21q-58 0 -99 -33.5t-58 -116.5l-2 -11h248l4 18q6 30 6 52zM209 664h76l-18 -86h-76zM380 664h76l-18 -86h-76z" />
    <glyph glyph-name="igrave" unicode="&#xec;" horiz-adv-x="218" 
d="M129 507h68l-108 -507h-67zM84 697h78l73 -125h-57z" />
    <glyph glyph-name="iacute" unicode="&#xed;" horiz-adv-x="218" 
d="M129 507h68l-108 -507h-67zM235 697h84l-146 -125h-63z" />
    <glyph glyph-name="icircumflex" unicode="&#xee;" horiz-adv-x="218" 
d="M129 507h68l-108 -507h-67zM178 706h55l76 -144h-62l-51 95l-94 -95h-61z" />
    <glyph glyph-name="idieresis" unicode="&#xef;" horiz-adv-x="218" 
d="M129 507h68l-108 -507h-67zM72 664h76l-18 -86h-76zM243 664h76l-18 -86h-76z" />
    <glyph glyph-name="eth" unicode="&#xf0;" horiz-adv-x="497" 
d="M409 496q39 -78 39 -154q0 -33 -8 -75l-11 -55q-22 -110 -84 -165.5t-153 -55.5q-74 0 -112.5 37t-38.5 109q0 35 8 70l12 55q22 102 79.5 157t137.5 55q41 0 67 -14l-48 93l-109 -31l-3 54l88 25l-46 89h83l35 -68l106 30l3 -54l-85 -24zM377 319q0 92 -94 92
q-122 0 -153 -147l-12 -57q-7 -37 -7 -56q0 -95 96 -95q59 0 98 37.5t54 112.5l11 56q7 37 7 57z" />
    <glyph glyph-name="ntilde" unicode="&#xf1;" horiz-adv-x="523" 
d="M129 507h68l-14 -62q28 34 66.5 51t82.5 17q67 0 103 -33.5t36 -94.5q0 -25 -6 -52l-71 -333h-68l68 322q5 27 5 43q0 43 -24 65t-68 22q-55 0 -95 -33.5t-53 -95.5l-69 -323h-68zM213 630q21 19 39 28.5t38 9.5q16 0 28 -5t27 -15q14 -10 25 -14.5t24 -4.5
q18 0 33.5 8.5t40.5 30.5l-13 -61q-40 -37 -77 -37q-17 0 -29 5t-28 15t-25.5 14t-21.5 4q-18 0 -33.5 -8.5t-40.5 -30.5z" />
    <glyph glyph-name="ograve" unicode="&#xf2;" horiz-adv-x="505" 
d="M85 28.5q-44 34.5 -44 109.5q0 30 7 64l22 104q23 108 84.5 158t149.5 50q73 0 117 -35t44 -108q0 -27 -8 -65l-22 -104q-23 -109 -84 -158.5t-147 -49.5q-75 0 -119 34.5zM310.5 88.5q39.5 33.5 56.5 117.5l20 96q7 31 7 56q0 94 -100 94q-59 0 -99 -33.5t-58 -116.5
l-20 -97q-6 -31 -6 -54q0 -53 27.5 -74.5t75.5 -21.5q57 0 96.5 33.5zM223 697h78l73 -125h-57z" />
    <glyph glyph-name="oacute" unicode="&#xf3;" horiz-adv-x="505" 
d="M85 28.5q-44 34.5 -44 109.5q0 30 7 64l22 104q23 108 84.5 158t149.5 50q73 0 117 -35t44 -108q0 -27 -8 -65l-22 -104q-23 -109 -84 -158.5t-147 -49.5q-75 0 -119 34.5zM310.5 88.5q39.5 33.5 56.5 117.5l20 96q7 31 7 56q0 94 -100 94q-59 0 -99 -33.5t-58 -116.5
l-20 -97q-6 -31 -6 -54q0 -53 27.5 -74.5t75.5 -21.5q57 0 96.5 33.5zM374 697h84l-146 -125h-63z" />
    <glyph glyph-name="ocircumflex" unicode="&#xf4;" horiz-adv-x="505" 
d="M85 28.5q-44 34.5 -44 109.5q0 30 7 64l22 104q23 108 84.5 158t149.5 50q73 0 117 -35t44 -108q0 -27 -8 -65l-22 -104q-23 -109 -84 -158.5t-147 -49.5q-75 0 -119 34.5zM310.5 88.5q39.5 33.5 56.5 117.5l20 96q7 31 7 56q0 94 -100 94q-59 0 -99 -33.5t-58 -116.5
l-20 -97q-6 -31 -6 -54q0 -53 27.5 -74.5t75.5 -21.5q57 0 96.5 33.5zM317 706h55l76 -144h-62l-51 95l-94 -95h-61z" />
    <glyph glyph-name="otilde" unicode="&#xf5;" horiz-adv-x="505" 
d="M85 28.5q-44 34.5 -44 109.5q0 30 7 64l22 104q23 108 84.5 158t149.5 50q73 0 117 -35t44 -108q0 -27 -8 -65l-22 -104q-23 -109 -84 -158.5t-147 -49.5q-75 0 -119 34.5zM310.5 88.5q39.5 33.5 56.5 117.5l20 96q7 31 7 56q0 94 -100 94q-59 0 -99 -33.5t-58 -116.5
l-20 -97q-6 -31 -6 -54q0 -53 27.5 -74.5t75.5 -21.5q57 0 96.5 33.5zM204 630q21 19 39 28.5t38 9.5q16 0 28 -5t27 -15q14 -10 25 -14.5t24 -4.5q18 0 33.5 8.5t40.5 30.5l-13 -61q-40 -37 -77 -37q-17 0 -29 5t-28 15t-25.5 14t-21.5 4q-18 0 -33.5 -8.5t-40.5 -30.5z
" />
    <glyph glyph-name="odieresis" unicode="&#xf6;" horiz-adv-x="505" 
d="M85 28.5q-44 34.5 -44 109.5q0 30 7 64l22 104q23 108 84.5 158t149.5 50q73 0 117 -35t44 -108q0 -27 -8 -65l-22 -104q-23 -109 -84 -158.5t-147 -49.5q-75 0 -119 34.5zM310.5 88.5q39.5 33.5 56.5 117.5l20 96q7 31 7 56q0 94 -100 94q-59 0 -99 -33.5t-58 -116.5
l-20 -97q-6 -31 -6 -54q0 -53 27.5 -74.5t75.5 -21.5q57 0 96.5 33.5zM211 664h76l-18 -86h-76zM382 664h76l-18 -86h-76z" />
    <glyph glyph-name="divide" unicode="&#xf7;" 
d="M227 384q-14 14 -14 34t14 34t34 14t34 -14t14 -34t-14 -34t-34 -14t-34 14zM62 309h398v-66h-398v66zM227 102q-14 14 -14 34t14 34t34 14t34 -14t14 -34t-14 -34t-34 -14t-34 14z" />
    <glyph glyph-name="oslash" unicode="&#xf8;" horiz-adv-x="505" 
d="M442 456q24 -34 24 -83q0 -27 -8 -67l-22 -104q-44 -208 -227 -208q-76 0 -120 33l-46 -57h-43l66 80q-26 32 -26 86q0 33 8 66l23 104q47 208 229 208q75 0 119 -34l43 53h43zM116 111l258 315q-25 26 -77 26q-59 0 -100.5 -33.5t-58.5 -116.5l-20 -96q-7 -31 -7 -57
q0 -20 5 -38zM391 394l-257 -314q25 -25 78 -25q57 0 98 33.5t58 117.5l20 96q7 31 7 58q0 21 -4 34z" />
    <glyph glyph-name="ugrave" unicode="&#xf9;" horiz-adv-x="523" 
d="M95.5 29q-40.5 35 -40.5 101q0 22 7 59l67 318h69l-67 -313q-7 -35 -7 -55q0 -42 23 -63t73 -21q64 0 98 33.5t49 106.5l67 312h68l-68 -321q-41 -192 -220 -192q-78 0 -118.5 35zM236 697h78l73 -125h-57z" />
    <glyph glyph-name="uacute" unicode="&#xfa;" horiz-adv-x="523" 
d="M95.5 29q-40.5 35 -40.5 101q0 22 7 59l67 318h69l-67 -313q-7 -35 -7 -55q0 -42 23 -63t73 -21q64 0 98 33.5t49 106.5l67 312h68l-68 -321q-41 -192 -220 -192q-78 0 -118.5 35zM387 697h84l-146 -125h-63z" />
    <glyph glyph-name="ucircumflex" unicode="&#xfb;" horiz-adv-x="523" 
d="M95.5 29q-40.5 35 -40.5 101q0 22 7 59l67 318h69l-67 -313q-7 -35 -7 -55q0 -42 23 -63t73 -21q64 0 98 33.5t49 106.5l67 312h68l-68 -321q-41 -192 -220 -192q-78 0 -118.5 35zM330 706h55l76 -144h-62l-51 95l-94 -95h-61z" />
    <glyph glyph-name="udieresis" unicode="&#xfc;" horiz-adv-x="523" 
d="M95.5 29q-40.5 35 -40.5 101q0 22 7 59l67 318h69l-67 -313q-7 -35 -7 -55q0 -42 23 -63t73 -21q64 0 98 33.5t49 106.5l67 312h68l-68 -321q-41 -192 -220 -192q-78 0 -118.5 35zM224 664h76l-18 -86h-76zM395 664h76l-18 -86h-76z" />
    <glyph glyph-name="yacute" unicode="&#xfd;" horiz-adv-x="440" 
d="M480 507l-315 -562q-29 -51 -65.5 -74t-88.5 -23h-30l13 62h24q37 0 58.5 14.5t40.5 49.5l18 33l-67 500h73l47 -402l219 402h73zM337 697h84l-146 -125h-63z" />
    <glyph glyph-name="thorn" unicode="&#xfe;" 
d="M168 690h68l-54 -254q29 38 66.5 58t81.5 20q64 0 102.5 -34t38.5 -106q0 -31 -10 -77l-21 -95q-24 -108 -82.5 -158t-132.5 -50q-96 0 -122 73l-46 -219h-68zM317 90.5q38 35.5 56 117.5l20 94q7 31 7 57q0 93 -91 93q-61 0 -101.5 -43t-55.5 -113l-15 -69
q-9 -42 -9 -68q0 -48 25 -76t75 -28q51 0 89 35.5z" />
    <glyph glyph-name="ydieresis" unicode="&#xff;" horiz-adv-x="440" 
d="M480 507l-315 -562q-29 -51 -65.5 -74t-88.5 -23h-30l13 62h24q37 0 58.5 14.5t40.5 49.5l18 33l-67 500h73l47 -402l219 402h73zM174 664h76l-18 -86h-76zM345 664h76l-18 -86h-76z" />
    <glyph glyph-name="dotlessi" unicode="&#x131;" horiz-adv-x="218" 
d="M129 507h68l-108 -507h-67z" />
    <glyph glyph-name="OE" unicode="&#x152;" horiz-adv-x="948" 
d="M624 624l-51 -240h296l-14 -66h-296l-54 -252h347l-15 -66h-419l9 43q-65 -51 -165 -51q-94 0 -149 44.5t-55 138.5q0 36 9 81l38 179q56 264 284 264q112 0 165 -63l11 54h419l-14 -66h-346zM399 105q49 46 71 147l39 180q8 36 8 71q0 130 -137 130q-81 0 -130 -47
t-72 -154l-39 -180q-8 -38 -8 -66q0 -127 141 -127q78 0 127 46z" />
    <glyph glyph-name="oe" unicode="&#x153;" horiz-adv-x="823" 
d="M737 477.5q44 -36.5 44 -111.5q0 -28 -8 -68l-12 -58h-317l-6 -31q-7 -31 -7 -58q0 -53 28.5 -74.5t78.5 -21.5q52 0 87 26t48 75h66q-16 -78 -70.5 -120t-139.5 -42q-53 0 -92.5 19t-59.5 58q-62 -77 -173 -77q-75 0 -119 34.5t-44 109.5q0 30 7 64l22 104
q23 108 84.5 158t149.5 50q52 0 90.5 -18t56.5 -56q63 74 169 74q73 0 117 -36.5zM310.5 88.5q39.5 33.5 56.5 117.5l20 96q7 31 7 56q0 94 -100 94q-59 0 -99 -33.5t-58 -116.5l-20 -97q-6 -31 -6 -54q0 -53 27.5 -74.5t75.5 -21.5q57 0 96.5 33.5zM713 361q0 49 -26 70
t-73 21q-58 0 -99 -33.5t-58 -116.5l-2 -11h248l4 18q6 30 6 52z" />
    <glyph glyph-name="Scaron" unicode="&#x160;" horiz-adv-x="550" 
d="M72 37q-53 43 -53 124q0 22 2 34h71q-1 -8 -1 -23q0 -114 137 -114q92 0 141 42t49 115q0 42 -25.5 65.5t-78.5 33.5l-78 15q-141 27 -141 143q0 70 32.5 121t91.5 78.5t135 27.5q86 0 138 -41.5t52 -124.5q0 -17 -1 -26h-72q2 18 2 25q0 104 -124 104q-84 0 -132.5 -42
t-48.5 -108q0 -39 24.5 -62t74.5 -32l80 -15q71 -13 108 -48.5t37 -98.5q0 -112 -72 -174t-198 -62q-97 0 -150 43zM260 890h59l52 -97l93 97h64l-137 -144h-56z" />
    <glyph glyph-name="scaron" unicode="&#x161;" horiz-adv-x="466" 
d="M67 33.5q-43 39.5 -43 112.5h64q0 -47 27.5 -70.5t87.5 -23.5q56 0 93 28t37 76q0 31 -19 46t-59 22l-59 11q-63 12 -92 37t-29 73q0 49 24.5 87.5t69 60t104.5 21.5q86 0 126.5 -38t40.5 -107h-66q0 46 -26 67.5t-83 21.5q-55 0 -88.5 -28.5t-33.5 -71.5q0 -28 18 -42.5
t56 -21.5l63 -12q64 -12 93 -39.5t29 -76.5q0 -78 -57 -125t-150 -47q-85 0 -128 39.5zM175 707h59l52 -97l93 97h64l-137 -144h-56z" />
    <glyph glyph-name="Ydieresis" unicode="&#x178;" horiz-adv-x="492" 
d="M290 288l-62 -288h-72l61 290l-120 400h78l93 -333l234 333h79zM241 847h76l-18 -86h-76zM412 847h76l-18 -86h-76z" />
    <glyph glyph-name="Zcaron" unicode="&#x17d;" horiz-adv-x="521" 
d="M556 624l-472 -558h357l-14 -66h-441l14 66l471 558h-338l13 66h424zM260 890h59l52 -97l93 97h64l-137 -144h-56z" />
    <glyph glyph-name="zcaron" unicode="&#x17e;" horiz-adv-x="457" 
d="M438 444l-340 -381h259l-13 -63h-339l14 63l339 381h-258l13 63h338zM180 707h59l52 -97l93 97h64l-137 -144h-56z" />
    <glyph glyph-name="florin" unicode="&#x192;" horiz-adv-x="407" 
d="M-58 -86h28q40 0 61.5 17t39.5 65l127 351h-85l13 63h95l48 132q29 79 71.5 113.5t114.5 34.5h32l-14 -66h-34q-38 0 -60.5 -18t-38.5 -63l-49 -133h105l-13 -63h-115l-127 -349q-30 -83 -71.5 -116.5t-113.5 -33.5h-29z" />
    <glyph glyph-name="circumflex" unicode="&#x2c6;" horiz-adv-x="487" 
d="M318 706h55l76 -144h-62l-51 95l-94 -95h-61z" />
    <glyph glyph-name="caron" unicode="&#x2c7;" horiz-adv-x="500" 
d="M212 707h59l52 -97l93 97h64l-137 -144h-56z" />
    <glyph glyph-name="dotaccent" unicode="&#x2d9;" horiz-adv-x="500" 
d="M288 680h72l-19 -90h-72z" />
    <glyph glyph-name="ring" unicode="&#x2da;" horiz-adv-x="500" 
d="M268.5 585q-25.5 26 -25.5 65q0 40 25.5 66t65.5 26q39 0 65 -26t26 -66q0 -39 -26 -65t-65 -26q-40 0 -65.5 26zM370.5 612q14.5 15 14.5 38t-14.5 38.5t-36.5 15.5t-37 -15.5t-15 -38.5t15 -38t37 -15t36.5 15z" />
    <glyph glyph-name="tilde" unicode="&#x2dc;" horiz-adv-x="487" 
d="M206 630q21 19 39 28.5t38 9.5q16 0 28 -5t27 -15q14 -10 25 -14.5t24 -4.5q18 0 33.5 8.5t40.5 30.5l-13 -61q-40 -37 -77 -37q-17 0 -29 5t-28 15t-25.5 14t-21.5 4q-18 0 -33.5 -8.5t-40.5 -30.5z" />
    <glyph glyph-name="gravecomb" unicode="&#x300;" horiz-adv-x="0" 
d="M-25 697h78l73 -125h-57z" />
    <glyph glyph-name="acutecomb" unicode="&#x301;" horiz-adv-x="0" 
d="M126 697h84l-146 -125h-63z" />
    <glyph glyph-name="uni0302" unicode="&#x302;" horiz-adv-x="0" 
d="M69 706h55l76 -144h-62l-51 95l-94 -95h-61z" />
    <glyph glyph-name="tildecomb" unicode="&#x303;" horiz-adv-x="0" 
d="M-44 630q21 19 39 28.5t38 9.5q16 0 28 -5t27 -15q14 -10 25 -14.5t24 -4.5q18 0 33.5 8.5t40.5 30.5l-13 -61q-40 -37 -77 -37q-17 0 -29 5t-28 15t-25.5 14t-21.5 4q-18 0 -33.5 -8.5t-40.5 -30.5z" />
    <glyph glyph-name="uni0308" unicode="&#x308;" horiz-adv-x="0" 
d="M-37 664h76l-18 -86h-76zM134 664h76l-18 -86h-76z" />
    <glyph glyph-name="uni030A" unicode="&#x30a;" horiz-adv-x="0" 
d="M18.5 585q-25.5 26 -25.5 65q0 40 25.5 66t65.5 26q39 0 65 -26t26 -66q0 -39 -26 -65t-65 -26q-40 0 -65.5 26zM121 612q15 15 15 38t-15 38.5t-37 15.5t-37 -15.5t-15 -38.5t15 -38t37 -15t37 15z" />
    <glyph glyph-name="endash" unicode="&#x2013;" horiz-adv-x="417" 
d="M27 380h417l-14 -66h-417z" />
    <glyph glyph-name="emdash" unicode="&#x2014;" horiz-adv-x="833" 
d="M27 380h833l-14 -66h-833z" />
    <glyph glyph-name="quoteleft" unicode="&#x2018;" horiz-adv-x="174" 
d="M166 475h-66l35 168l82 62zM163 690z" />
    <glyph glyph-name="quoteright" unicode="&#x2019;" horiz-adv-x="174" 
d="M147 690h66l-35 -168l-82 -62z" />
    <glyph glyph-name="quotesinglbase" unicode="&#x201a;" horiz-adv-x="174" 
d="M20 93h66l-35 -168l-82 -62z" />
    <glyph glyph-name="quotedblleft" unicode="&#x201c;" horiz-adv-x="313" 
d="M167 475h-66l35 168l82 62zM305 475h-66l35 168l82 62zM172 690z" />
    <glyph glyph-name="quotedblright" unicode="&#x201d;" horiz-adv-x="313" 
d="M148 691h66l-35 -168l-82 -62zM286 691h66l-35 -168l-82 -62z" />
    <glyph glyph-name="quotedblbase" unicode="&#x201e;" horiz-adv-x="311" 
d="M157 93h66l-35 -168l-82 -62zM21 93h66l-35 -168l-82 -62z" />
    <glyph glyph-name="dagger" unicode="&#x2020;" horiz-adv-x="527" 
d="M479 381h-151l-113 -533h-74l114 533h-153l14 65h153l52 244h72l-52 -244h152z" />
    <glyph glyph-name="daggerdbl" unicode="&#x2021;" horiz-adv-x="527" 
d="M329 384l-48 -227h151l-14 -66h-151l-52 -243h-73l52 243h-153l14 66h153l48 227h-153l14 66h153l51 240h73l-51 -240h151l-14 -66h-151z" />
    <glyph glyph-name="bullet" unicode="&#x2022;" horiz-adv-x="478" 
d="M163 220.5q-35 34.5 -35 87.5t35 87.5t88 34.5t87.5 -34.5t34.5 -87.5t-34.5 -87.5t-87.5 -34.5t-88 34.5z" />
    <glyph glyph-name="ellipsis" unicode="&#x2026;" horiz-adv-x="709" 
d="M41 92h89l-20 -92h-88zM511 92h89l-20 -92h-88zM276 92h89l-20 -92h-88z" />
    <glyph glyph-name="perthousand" unicode="&#x2030;" horiz-adv-x="1246" 
d="M83 358q0 28 7 57l30 139q15 71 51.5 107t96.5 36q100 0 100 -89q0 -24 -6 -54l-29 -139q-15 -74 -51 -111t-99 -37q-100 0 -100 91zM694 690h62l-520 -690h-63zM240 346q15 21 25 72l27 130q7 35 7 49q0 21 -10 31t-32 10q-30 0 -45 -20.5t-25 -69.5l-28 -130
q-7 -35 -7 -51q0 -22 10 -32t32 -10q31 0 46 21zM559 85q0 28 7 57l30 139q15 71 51.5 107t96.5 36q100 0 100 -89q0 -24 -6 -54l-29 -139q-15 -74 -51 -111t-99 -37q-100 0 -100 91zM915 85q0 28 7 57l30 139q15 71 51.5 107t96.5 36q100 0 100 -89q0 -24 -6 -54l-29 -139
q-15 -74 -51 -111t-99 -37q-100 0 -100 91zM716 73q15 21 25 72l27 130q7 35 7 49q0 21 -10 31t-32 10q-30 0 -45 -20.5t-25 -69.5l-28 -130q-7 -35 -7 -51q0 -22 10 -32t32 -10q31 0 46 21zM1072 73q15 21 25 72l27 130q7 35 7 49q0 21 -10 31t-32 10q-30 0 -45 -20.5
t-25 -69.5l-28 -130q-7 -35 -7 -51q0 -22 10 -32t32 -10q31 0 46 21z" />
    <glyph glyph-name="guilsinglleft" unicode="&#x2039;" horiz-adv-x="295" 
d="M27 264l237 198l-17 -83l-138 -115l89 -115l-18 -83z" />
    <glyph glyph-name="guilsinglright" unicode="&#x203a;" horiz-adv-x="296" 
d="M54 149l137 115l-89 115l18 83l153 -198l-237 -198z" />
    <glyph glyph-name="Euro" unicode="&#x20ac;" horiz-adv-x="554" 
d="M137.5 30q-44.5 40 -44.5 107q0 31 8 69l10 49h-60l12 57h60l15 72h-60l12 56h60l11 52q20 93 78 150.5t148 57.5q78 0 118.5 -40t40.5 -119h-66q0 93 -99 93q-66 0 -99.5 -37t-47.5 -104l-11 -53h207l-23 -56h-196l-15 -72h182l-22 -57h-172l-11 -51q-6 -27 -6 -52
q0 -44 25 -70t76 -26q50 0 81 23.5t48 69.5h69q-23 -76 -75 -117.5t-128 -41.5q-81 0 -125.5 40z" />
    <glyph glyph-name="trademark" unicode="&#x2122;" horiz-adv-x="903" 
d="M248 637h-115v53h288v-53h-114v-341h-59v341zM490 690h54l117 -264h3l114 264h54v-394h-56v261h-2l-91 -203h-43l-92 203h-2v-261h-56v394z" />
    <glyph glyph-name="NULL" horiz-adv-x="600" 
 />
    <glyph glyph-name="t_t" horiz-adv-x="637" 
d="M445 129q-3 -13 -3 -23q0 -46 54 -46h40l-13 -60h-51q-48 0 -74 24t-26 66q0 19 4 36l70 327h-218l-69 -324q-3 -13 -3 -23q0 -46 54 -46h40l-13 -60h-51q-48 0 -74 24t-26 66q0 19 4 36l70 327h-79l11 54h79l25 116l75 32l-32 -148h218l25 116l75 32l-32 -148h115
l-11 -54h-115z" />
    <glyph glyph-name="zero.dnom" horiz-adv-x="356" 
d="M25 85q0 28 7 57l30 139q15 71 51.5 107t96.5 36q100 0 100 -89q0 -24 -6 -54l-29 -139q-15 -74 -51 -111t-99 -37q-100 0 -100 91zM182 73q15 21 25 72l27 130q7 35 7 49q0 21 -10 31t-32 10q-30 0 -45 -20.5t-25 -69.5l-28 -130q-7 -35 -7 -51q0 -22 10 -32t32 -10
q31 0 46 21z" />
    <glyph glyph-name="one.dnom" horiz-adv-x="251" 
d="M147 344l-85 -55l15 74l85 54h70l-89 -417h-69z" />
    <glyph glyph-name="two.dnom" horiz-adv-x="385" 
d="M34 52l178 188q43 46 43 89q0 19 -10.5 29t-30.5 10q-24 0 -41 -15t-23 -45l-2 -11h-65l3 15q11 51 49.5 81.5t93.5 30.5q45 0 71.5 -22t26.5 -59q0 -40 -17.5 -72t-49.5 -65l-138 -147h146l-12 -59h-234z" />
    <glyph glyph-name="three.dnom" horiz-adv-x="359" 
d="M49 14.5q-27 20.5 -27 56.5q0 13 7 41h60q-3 -16 -3 -23q0 -18 12 -29t33 -11q35 0 55 29t20 65q0 21 -12.5 33t-36.5 12h-21l12 56h21q33 0 51.5 25.5t18.5 58.5q0 19 -10.5 29.5t-30.5 10.5q-25 0 -41.5 -14t-21.5 -38l-2 -10h-61l2 11q9 49 44.5 78t89.5 29
q45 0 72 -23t27 -64q0 -37 -20.5 -70.5t-57.5 -46.5q22 -8 33 -26.5t11 -43.5q0 -42 -19.5 -77.5t-54 -57t-76.5 -21.5q-47 0 -74 20.5z" />
    <glyph glyph-name="four.dnom" horiz-adv-x="345" 
d="M267 75h-39l-16 -75h-69l16 75h-156l12 59l177 283h68l-177 -283h89l21 98h68l-21 -98h40z" />
    <glyph glyph-name="zero.numr" horiz-adv-x="356" 
d="M83 358q0 28 7 57l30 139q15 71 51.5 107t96.5 36q100 0 100 -89q0 -24 -6 -54l-29 -139q-15 -74 -51 -111t-99 -37q-100 0 -100 91zM240 346q15 21 25 72l27 130q7 35 7 49q0 21 -10 31t-32 10q-30 0 -45 -20.5t-25 -69.5l-28 -130q-7 -35 -7 -51q0 -22 10 -32t32 -10
q31 0 46 21z" />
    <glyph glyph-name="one.numr" horiz-adv-x="251" 
d="M205 617l-85 -55l15 74l85 54h70l-89 -417h-69z" />
    <glyph glyph-name="two.numr" horiz-adv-x="385" 
d="M92 325l178 188q43 46 43 89q0 19 -10.5 29t-30.5 10q-24 0 -41 -15t-23 -45l-2 -11h-65l3 15q11 51 49.5 81.5t93.5 30.5q45 0 71.5 -22t26.5 -59q0 -40 -17.5 -72t-49.5 -65l-138 -147h146l-12 -59h-234z" />
    <glyph glyph-name="three.numr" horiz-adv-x="359" 
d="M107 287.5q-27 20.5 -27 56.5q0 13 7 41h60q-3 -16 -3 -23q0 -18 12 -29t33 -11q35 0 55 29t20 65q0 21 -12.5 33t-36.5 12h-21l12 56h21q33 0 51.5 25.5t18.5 58.5q0 19 -10.5 29.5t-30.5 10.5q-25 0 -41.5 -14t-21.5 -38l-2 -10h-61l2 11q9 49 44.5 78t89.5 29
q45 0 72 -23t27 -64q0 -37 -20.5 -70.5t-57.5 -46.5q22 -8 33 -26.5t11 -43.5q0 -42 -19.5 -77.5t-54 -57t-76.5 -21.5q-47 0 -74 20.5z" />
    <glyph glyph-name="four.numr" horiz-adv-x="345" 
d="M325 348h-39l-16 -75h-69l16 75h-156l12 59l177 283h68l-177 -283h89l21 98h68l-21 -98h40z" />
    <glyph glyph-name="zero.sups" horiz-adv-x="356" 
d="M117 515q0 28 7 57l30 139q15 71 51.5 107t96.5 36q100 0 100 -89q0 -24 -6 -54l-29 -139q-15 -74 -51 -111t-99 -37q-100 0 -100 91zM274 503q15 21 25 72l27 130q7 35 7 49q0 21 -10 31t-32 10q-30 0 -45 -20.5t-25 -69.5l-28 -130q-7 -35 -7 -51q0 -22 10 -32t32 -10
q31 0 46 21z" />
    <glyph glyph-name="one.sups" horiz-adv-x="251" 
d="M238 774l-85 -55l15 74l85 54h70l-89 -417h-69z" />
    <glyph glyph-name="two.sups" horiz-adv-x="385" 
d="M126 482l178 188q43 46 43 89q0 19 -10.5 29t-30.5 10q-24 0 -41 -15t-23 -45l-2 -11h-65l3 15q11 51 49.5 81.5t93.5 30.5q45 0 71.5 -22t26.5 -59q0 -40 -17.5 -72t-49.5 -65l-138 -147h146l-12 -59h-234z" />
    <glyph glyph-name="three.sups" horiz-adv-x="359" 
d="M142 444.5q-27 20.5 -27 56.5q0 13 7 41h60q-3 -16 -3 -23q0 -18 12 -29t33 -11q35 0 55 29t20 65q0 21 -12.5 33t-36.5 12h-21l12 56h21q33 0 51.5 25.5t18.5 58.5q0 19 -10.5 29.5t-30.5 10.5q-25 0 -41.5 -14t-21.5 -38l-2 -10h-61l2 11q9 49 44.5 78t89.5 29
q45 0 72 -23t27 -64q0 -37 -20.5 -70.5t-57.5 -46.5q22 -8 33 -26.5t11 -43.5q0 -42 -19.5 -77.5t-54 -57t-76.5 -21.5q-47 0 -74 20.5z" />
    <glyph glyph-name="four.sups" horiz-adv-x="345" 
d="M358 505h-39l-16 -75h-69l16 75h-156l12 59l177 283h68l-177 -283h89l21 98h68l-21 -98h40z" />
    <glyph glyph-name="glyph249" horiz-adv-x="178" 
d="M342 690h62l-520 -690h-63z" />
    </font>
</defs>
</svg>
